<svg xmlns="http://www.w3.org/2000/svg" width="390" height="356" viewBox="0 0 390 356">
  <g id="Group_1713" data-name="Group 1713" transform="translate(-766 -2700)">
    <rect id="Rectangle_28" data-name="Rectangle 28" width="390" height="356" rx="5" transform="translate(766 2700)" fill="#222"/>
    <g id="Group_67" data-name="Group 67" transform="translate(851 2777)">
      <path id="Path_202" data-name="Path 202" d="M-338.731,513.832a46.654,46.654,0,0,0-46.518,46.18,46.243,46.243,0,0,0,13.385,33,46.2,46.2,0,0,0,32.789,13.869h.363A46.649,46.649,0,0,0-292.2,560.706a46.582,46.582,0,0,0-46.181-46.873Zm-35.894,21A44.109,44.109,0,0,1-339,516.248a91.05,91.05,0,0,1-6.045,27.683,97.354,97.354,0,0,0-29.575-5.077Zm-5.556,40.556a44.25,44.25,0,0,1-2.666-15.36,43.737,43.737,0,0,1,2.666-14.607Zm5.556,7.425V544.392a91.929,91.929,0,0,1,27.4,4.661A90.605,90.605,0,0,1-374.624,582.816Zm8.552.194a94.311,94.311,0,0,0,24.1-32.037,88.786,88.786,0,0,1,18,9.782A73.29,73.29,0,0,1-366.072,583.01Zm59.339-52.962a72.769,72.769,0,0,1-13.572,26.5,94.533,94.533,0,0,0-19.54-10.7,96.137,96.137,0,0,0,6.362-29.29A43.983,43.983,0,0,1-306.733,530.047Z" transform="translate(450.248 -437.681)" fill="none"/>
      <path id="Path_206" data-name="Path 206" d="M-376.542,593.287a43.741,43.741,0,0,0-2.666,14.607,44.253,44.253,0,0,0,2.666,15.36Z" transform="translate(446.609 -485.543)" fill="#fff"/>
      <g id="Group_66" data-name="Group 66">
        <path id="Path_203" data-name="Path 203" d="M-486.1,616.509a87.759,87.759,0,0,0-11.413,7.055,73.577,73.577,0,0,0,17.232,13.066,75.335,75.335,0,0,1-1.4-14.981c.007-.567.039-1.125.055-1.689A11.13,11.13,0,0,1-486.1,616.509Z" transform="translate(517.876 -499.532)" fill="#fff"/>
        <path id="Path_204" data-name="Path 204" d="M-519.314,519.146l-17.112.01a11.071,11.071,0,0,1-10.011,8.612,72.582,72.582,0,0,0,15.709,33.012,94.732,94.732,0,0,1,12.939-8.03,11.009,11.009,0,0,1-.168-1.7,11.031,11.031,0,0,1,3.092-7.662A96.673,96.673,0,0,1-519.314,519.146Z" transform="translate(547.344 -440.882)" fill="#fff"/>
        <path id="Path_205" data-name="Path 205" d="M-460.467,540.421a10.966,10.966,0,0,1,2.686-.455,74.341,74.341,0,0,1,10.944-20.844l-17.413.01A91.443,91.443,0,0,0-460.467,540.421Z" transform="translate(497.836 -440.867)" fill="#fff"/>
        <path id="Path_207" data-name="Path 207" d="M-503.921,347.7a90.431,90.431,0,0,0,17.545,10.889,95.629,95.629,0,0,1,25.132-34.763A73.226,73.226,0,0,0-503.921,347.7Z" transform="translate(521.733 -323.222)" fill="#fff"/>
        <path id="Path_208" data-name="Path 208" d="M-464.692,459.8l22.172-.012a75.318,75.318,0,0,1,14.484-12.335v-10.9a95.94,95.94,0,0,1-31.615-6.705A91.6,91.6,0,0,0-464.692,459.8Z" transform="translate(498.102 -387.092)" fill="#fff"/>
        <path id="Path_209" data-name="Path 209" d="M-548.632,430.648a11.07,11.07,0,0,1,10.605,7.979l17.167-.011a96.96,96.96,0,0,1,5.482-32.165,95.947,95.947,0,0,1-19.039-11.772,72.436,72.436,0,0,0-14.3,35.979Z" transform="translate(548.719 -365.905)" fill="#fff"/>
        <path id="Path_210" data-name="Path 210" d="M-337.018,639.277a73.289,73.289,0,0,0,42.1-22.255,88.794,88.794,0,0,0-18-9.782A94.312,94.312,0,0,1-337.018,639.277Z" transform="translate(421.193 -493.948)" fill="#fff"/>
        <path id="Path_211" data-name="Path 211" d="M-271.056,550a94.541,94.541,0,0,1,19.54,10.7,72.77,72.77,0,0,0,13.572-26.5,43.982,43.982,0,0,0-26.75-13.483A96.139,96.139,0,0,1-271.056,550Z" transform="translate(381.459 -441.821)" fill="#fff"/>
        <path id="Path_212" data-name="Path 212" d="M-225.652,424a72.759,72.759,0,0,0-12.075-26.5,96.627,96.627,0,0,1-12.489,8.019,11,11,0,0,1,.719,3.839,10.985,10.985,0,0,1-2.471,6.907A73.827,73.827,0,0,1-225.652,424Z" transform="translate(369.961 -367.602)" fill="#fff"/>
        <path id="Path_213" data-name="Path 213" d="M-417.372,366.221V322.312a90.309,90.309,0,0,0-29.618,37.569A90.29,90.29,0,0,0-417.372,366.221Z" transform="translate(487.439 -322.312)" fill="#fff"/>
        <path id="Path_214" data-name="Path 214" d="M-358.527,323.9v43.343A90.348,90.348,0,0,0-335.8,363.91a11,11,0,0,1,4.06-7.5A90.54,90.54,0,0,0-358.527,323.9Z" transform="translate(434.15 -323.269)" fill="#fff"/>
        <path id="Path_215" data-name="Path 215" d="M-313.762,353.8a11.175,11.175,0,0,1,1.911-.192,11,11,0,0,1,7.188,2.7,91.013,91.013,0,0,0,12.27-7.817,72.974,72.974,0,0,0-44.643-25.1A95.736,95.736,0,0,1-313.762,353.8Z" transform="translate(421.204 -322.966)" fill="#fff"/>
        <path id="Path_216" data-name="Path 216" d="M-358.527,449.354a73.683,73.683,0,0,1,25.308-8.131,11.08,11.08,0,0,1-1.752-2.733,95.812,95.812,0,0,1-23.556,3.34Z" transform="translate(434.15 -392.296)" fill="#fff"/>
        <path id="Path_217" data-name="Path 217" d="M-358.527,629.114a90.606,90.606,0,0,0,27.4-33.763,91.932,91.932,0,0,0-27.4-4.661Z" transform="translate(434.15 -483.979)" fill="#fff"/>
        <path id="Path_218" data-name="Path 218" d="M-358.527,538.5v4.019a97.345,97.345,0,0,1,29.575,5.077,91.046,91.046,0,0,0,6.045-27.683A44.109,44.109,0,0,0-358.527,538.5Z" transform="translate(434.15 -441.342)" fill="#fff"/>
      </g>
      <path id="Path_222" data-name="Path 222" d="M-282.9,599.612l-37.345-37.341A71.434,71.434,0,0,0-307.7,522.3a72.076,72.076,0,0,0-71.451-72.523l-.544,0a72.177,72.177,0,0,0-71.975,71.454,71.5,71.5,0,0,0,20.7,51.053,71.514,71.514,0,0,0,50.748,21.461l.544,0a71.624,71.624,0,0,0,37.72-10.69l37.383,37.369-2.12-2.121,21.4-21.077Zm-95.825-31.318h-.363a46.2,46.2,0,0,1-32.789-13.869,46.243,46.243,0,0,1-13.385-33,46.653,46.653,0,0,1,46.518-46.18l.351,0a46.582,46.582,0,0,1,46.181,46.873A46.65,46.65,0,0,1-378.72,568.294Z" transform="translate(490.256 -399.093)" fill="#ffb71c"/>
      <path id="Path_223" data-name="Path 223" d="M-71.81,854.291l5.1,5.174a8.132,8.132,0,0,0,5.963,2.308h0c3.886,0,8.328-2.093,11.888-5.6,6-5.915,7.563-13.732,3.559-17.8l-6.812-6.909-.019.015.082.078.012-.007,3.292,3.34-21.393,21.077Z" transform="translate(261.436 -629.018)" fill="#ffb71c"/>
      <path id="Path_224" data-name="Path 224" d="M-74.527,886.151l-1.617-1.615v0Z" transform="translate(264.047 -660.987)" fill="#82bfab"/>
      <path id="Path_225" data-name="Path 225" d="M-61.3,824.941-63.251,823l-2.387-2.387-21.4,21.078,2.12,2.121,2.214,2.219,1.617,1.615.106.109,1.675,1.676,21.393-21.077-3.292-3.34-.012.007Z" transform="translate(270.613 -622.48)" fill="#fff"/>
    </g>
  </g>
</svg>
