<svg xmlns="http://www.w3.org/2000/svg" width="390" height="356" viewBox="0 0 390 356">
  <g id="Group_1714" data-name="Group 1714" transform="translate(-1390 -2700)">
    <rect id="Rectangle_162" data-name="Rectangle 162" width="390" height="356" rx="5" transform="translate(1390 2700)" fill="#222"/>
    <g id="Group_68" data-name="Group 68" transform="translate(1486 2779)">
      <path id="Path_168" data-name="Path 168" d="M-372.547-245.27c0,8.831.024,17.662,0,26.493-.038,13.221-9.486,22.72-22.672,22.744q-26.488.049-52.975,0c-13.793-.027-23.089-9.3-23.117-23.059q-.054-26.621,0-53.243c.031-12.912,9.521-22.441,22.4-22.475q26.873-.071,53.747,0c13.126.04,22.525,9.434,22.6,22.528C-372.505-263.276-372.549-254.273-372.547-245.27Z" transform="translate(471.342 294.846)" fill="#fff"/>
      <path id="Path_169" data-name="Path 169" d="M-279.644-53.71q0-13.507,0-27.013c.013-12.7,9.608-22.368,22.243-22.38q27.137-.027,54.273,0a21.858,21.858,0,0,1,22.244,22.114q.083,27.27,0,54.541A21.862,21.862,0,0,1-203.12-4.323q-27.136.063-54.273,0c-12.689-.032-22.227-9.666-22.248-22.374Q-279.664-40.2-279.644-53.71Zm76.66-27.235h-54.459V-26.48h54.459Z" transform="translate(378.443 201.931)" fill="#fff"/>
      <path id="Path_170" data-name="Path 170" d="M-225.2-250.968h21.513c-.22-4.783-.027-9.429-.754-13.926-.747-4.624-5.246-7.81-10.162-7.887-6.341-.1-12.685-.032-19.027-.036H-236.6V-294.8c2.55,0,5.094-.041,7.636.008,6.419.124,12.908-.269,19.24.547,15.338,1.976,27.119,15.381,27.656,30.831.14,4.011.021,8.03.021,12.437h21.281l-32.207,32.2Z" transform="translate(357.582 294.834)" fill="#ffb71c"/>
      <path id="Path_171" data-name="Path 171" d="M-448.084-26.471h-20.742l31.805-31.811,31.851,31.81h-20.656c0,4.8-.467,9.366.127,13.79.636,4.741,5.193,7.98,10.261,8.062,6.341.1,12.684.031,19.026.034h2.924v22c-7.112,0-14.118.09-21.119-.044a40.182,40.182,0,0,1-8.386-.971,32.56,32.56,0,0,1-25.074-30.716C-448.189-18.237-448.084-22.165-448.084-26.471Z" transform="translate(470.123 180.203)" fill="#ffb71c"/>
    </g>
  </g>
</svg>
