<svg xmlns="http://www.w3.org/2000/svg" width="390" height="356" viewBox="0 0 390 356">
  <g id="Group_1712" data-name="Group 1712" transform="translate(-140 -2700)">
    <rect id="Rectangle_161" data-name="Rectangle 161" width="390" height="356" rx="5" transform="translate(140 2700)" fill="#222"/>
    <path id="Path_176" data-name="Path 176" d="M448.113,425.382h-8.225a65.54,65.54,0,0,0,1.162-12.271c0-30.852-21.24-55.862-47.442-55.862a40.825,40.825,0,0,0-13.456,2.293c-7.837-18.141-23.83-30.578-42.3-30.578-19.448,0-36.153,13.784-43.478,33.5a41.386,41.386,0,0,0-20.024-5.219c-26.2,0-47.442,25.01-47.442,55.862a65.568,65.568,0,0,0,1.162,12.271h-6.964c-10.18,0-18.51,9.808-18.51,21.8s8.33,21.8,18.51,21.8H448.113c10.181,0,18.51-9.808,18.51-21.8S458.294,425.382,448.113,425.382Z" transform="translate(0.563 2477.035)" fill="#fff"/>
    <path id="Path_177" data-name="Path 177" d="M526.508,533.713,487.435,475.1a8.38,8.38,0,0,0-13.945,0l-39.073,58.61a8.38,8.38,0,0,0,6.972,13.028h19.354v40.336a5.557,5.557,0,0,0,5.541,5.542h28.356a5.558,5.558,0,0,0,5.541-5.542V546.741h19.354A8.38,8.38,0,0,0,526.508,533.713Z" transform="translate(-144.313 2387.489)" fill="#ffb71c"/>
  </g>
</svg>
