<svg xmlns="http://www.w3.org/2000/svg" width="727.573" height="471.529" viewBox="0 0 727.573 471.529">
  <g id="Group_1467" data-name="Group 1467" transform="translate(-303.574 -220.175)">
    <g id="Group_1446" data-name="Group 1446" transform="translate(375.009 283.214)">
      <path id="Path_1168" data-name="Path 1168" d="M963.014,569.545c-14.093-3.328-29.6-.273-40.836,10.636A84.154,84.154,0,0,0,897.665,626.3c-8.642,52.342,116.542,31.884,98.078-28.867C991.323,582.887,977.379,572.937,963.014,569.545Z" transform="translate(-789.299 -526.133)" fill="#ebebeb" opacity="0.6"/>
      <path id="Path_1169" data-name="Path 1169" d="M1135.481,708.13c-31.314,44.621-80.479,74.569-130.539,98.064q-21.5,10.079-43.473,19.023Q946.2,831.472,930.783,837.3H595.559q-5.638-5.91-10.926-12.086C552,787.074,531,741.873,543.807,689.723c13.089-53.262,60.284-96.747,115.335-108.313,37.273-7.832,77.2-1.837,112.676-15.712,41.479-16.219,67.608-55.607,100.989-84.637,34.626-30.106,79.368-49.818,125.39-52.042s92.879,13.766,124.532,45.455c22.238,22.25,36.487,51.377,43.134,81.857C1177.068,607.733,1166.42,664.029,1135.481,708.13Z" transform="translate(-540 -428.814)" fill="#ebebeb" opacity="0.6"/>
    </g>
    <g id="Group_1453" data-name="Group 1453" transform="translate(303.574 266.974)">
      <g id="Group_1447" data-name="Group 1447" transform="translate(260.707 0)">
        <path id="Path_1170" data-name="Path 1170" d="M1185.607,455.311c-.121.52-.242,1.039-.351,1.535a.063.063,0,0,1-.024.048c-2.03,8.46-3.819,14.225-7.155,19.688l-11.651-11.071,6.369-12.05.411-.761v-.012l.012-.024.085.024,1.329.278Z" transform="translate(-1166.427 -429.217)" fill="#f9b384"/>
        <path id="Path_1171" data-name="Path 1171" d="M1190.956,392.238q-.036.562-.109,1.124a32.815,32.815,0,0,1-.653,3.493c-.181.773-.387,1.547-.6,2.284-.254.882-.532,1.728-.8,2.5-.073.193-.133.387-.193.568s-.109.326-.169.483a.063.063,0,0,1-.024.048c-.085.23-.157.447-.242.665a.172.172,0,0,1-.024.073c-.06.181-.133.35-.193.52-.423,1.124-.725,1.813-.725,1.813a15.491,15.491,0,0,1-10.116-6.248c-.242-.314-.471-.628-.689-.955-.012-.024-.024-.036-.036-.06v-.012c-3-4.448-4.351-10.007-4.967-14.177-.012-.048-.012-.085-.024-.133-.218-1.511-.338-2.84-.411-3.843a1.953,1.953,0,0,1,1.97-2.079l1.765.024,1.934-3.263,13.609,6.067a44.288,44.288,0,0,1,.761,6.7A38.914,38.914,0,0,1,1190.956,392.238Z" transform="translate(-1169.6 -375.064)" fill="#f9b384"/>
        <path id="Path_1172" data-name="Path 1172" d="M1183.292,415.553l-4.472,4.726-1.426-.266V420c-3-4.448-4.351-10.007-4.967-14.177l3.457.81c.157,2.272,2.042,6.925,2.042,6.925Z" transform="translate(-1170.614 -396.53)" fill="#e28b6d"/>
        <path id="Path_1173" data-name="Path 1173" d="M1176.235,392.5c-1.414,1.172-3.734-.073-4.846-.8-.218-1.511-.338-2.84-.411-3.843a1.953,1.953,0,0,1,1.97-2.079l1.765.024S1177.987,391.041,1176.235,392.5Z" transform="translate(-1169.6 -382.545)" fill="#e28b6d"/>
        <path id="Path_1174" data-name="Path 1174" d="M1203.588,411.7l-.59-.076-10.222-2.347-3.289,6.694,4.891,2.27a11.947,11.947,0,0,0-5.389,4.244,15.81,15.81,0,0,0,10.8,7.2s3.317-7.641,3.738-13.565A39.644,39.644,0,0,0,1203.588,411.7Zm-7.737,6.17c.29-.966.28-2.5-2-3.493l2.979.212.4,3.227A4.6,4.6,0,0,0,1195.851,417.87Z" transform="translate(-1182.173 -398.94)" fill="#f9b384"/>
      </g>
      <path id="Path_1175" data-name="Path 1175" d="M1038.824,475.581c-11.022,27.942-31.967,59.97-51.824,81.785-7.288,8-14.418,14.624-20.86,19.18l-10.623-27.4-1.329-3.432,3.336-2.985.6-.544,38.493-34.432,25.03-41.37Z" transform="translate(-757.607 -438.792)" fill="#ffb71c"/>
      <g id="Group_1448" data-name="Group 1448" transform="translate(190.08 380.525)">
        <path id="Path_1176" data-name="Path 1176" d="M980.613,1634.475l-25.084,1.018-3.946,17.565,23.535,3.68Z" transform="translate(-945.87 -1634.475)" fill="#f9b384"/>
        <path id="Path_1177" data-name="Path 1177" d="M983.583,1721.6l-21.661-21.942-23.535-3.68-5.713,25.433Z" transform="translate(-932.674 -1677.395)" fill="#d3dfff"/>
        <rect id="Rectangle_1267" data-name="Rectangle 1267" width="1.21" height="11.851" transform="matrix(0.191, -0.982, 0.982, 0.191, 4.173, 26.14)" fill="#708cd5"/>
        <rect id="Rectangle_1268" data-name="Rectangle 1268" width="8.054" height="1.209" transform="translate(28.674 32.843) rotate(-23.162)" fill="#708cd5"/>
        <rect id="Rectangle_1269" data-name="Rectangle 1269" width="8.054" height="1.209" transform="translate(33.358 37.073) rotate(-23.162)" fill="#708cd5"/>
      </g>
      <path id="Path_1178" data-name="Path 1178" d="M863.639,1061.726l43.88,81.669L884.5,1241.42l42.773-.239,23.715-77.348a54.169,54.169,0,0,0-2.641-38.654l-25.723-55.506Z" transform="translate(-694.418 -854.254)" fill="#7b7b7b"/>
      <g id="Group_1449" data-name="Group 1449" transform="translate(0 98.813)">
        <path id="Path_1179" data-name="Path 1179" d="M594.5,966.456c-28.317,37.78-65.59,59.039-107.129,72.406a27.18,27.18,0,0,0,2.042-4.52,14.79,14.79,0,0,0-2.042-14.152l-1.269-13.149,76.358-56.417,18.25,12.3Z" transform="translate(-430.955 -875.535)" fill="#a11c20"/>
        <path id="Path_1180" data-name="Path 1180" d="M352.717,788.085c14.849,28.849,15.643,68.872,41.576,70.424L515.115,780.6l-35.55-61.665-96.727,38.182Z" transform="translate(-337.869 -713.848)" fill="#a11c20"/>
        <path id="Path_1181" data-name="Path 1181" d="M492.349,1077.414a14.79,14.79,0,0,0-2.042-14.152c22.838-11.537,50.011-29.86,78.932-50.918C545.53,1036.34,520.435,1058.671,492.349,1077.414Z" transform="translate(-433.887 -918.606)" fill="#611113" opacity="0.3"/>
        <path id="Path_1182" data-name="Path 1182" d="M549.67,960.439c-27.151,47.515-72.889,69.018-132.364,86.545l17.9,11.84a17.13,17.13,0,0,0,19.266-.256c37.4-26.174,71.668-52.645,97.745-79.888Z" transform="translate(-382.942 -882.384)" fill="#e1272c"/>
        <path id="Path_1183" data-name="Path 1183" d="M480.908,706.764c-34.9-15.63-91.715,10.975-148,36.564a42.443,42.443,0,0,0-24.3,31.661l-5.033,30.2C336.665,754.7,406,720.72,480.908,706.764Z" transform="translate(-303.574 -702.103)" fill="#e1272c"/>
      </g>
      <path id="Path_1184" data-name="Path 1184" d="M896.723,656.659c-.157,5.257-.375,9.669-.326,10.515l-20.22,3.13-11.59-8.484c5.511-6.3,8.073-20.667,11.264-33.115l12.7,7.578,8.243,4.907C897.013,645.37,896.9,651.425,896.723,656.659Z" transform="translate(-695.079 -552.068)" fill="#f9b384"/>
      <path id="Path_1185" data-name="Path 1185" d="M930.583,671.006c-6.055-3.638-13.9-9.185-17.476-21.742l9.306,1.366,8.243,4.907C930.873,659.718,930.764,665.773,930.583,671.006Z" transform="translate(-728.939 -566.416)" fill="#e28b6d"/>
      <path id="Path_1186" data-name="Path 1186" d="M936.83,567.172a21.016,21.016,0,0,1-.967,7.626c-3.976,12.1-19.011,15.409-30.106-.073l-.931-23.906,7.844-6.756,25.5,9.85-1.6,10.551A23.747,23.747,0,0,1,936.83,567.172Z" transform="translate(-723.161 -493.001)" fill="#f9b384"/>
      <path id="Path_1187" data-name="Path 1187" d="M990.5,822.717c-3.96-27.152-21.778-67.6-40.727-84.637L940.865,755.9l25.879,72.97Z" transform="translate(-748.31 -628.396)" fill="#f89a39"/>
      <path id="Path_1188" data-name="Path 1188" d="M910.164,805.079c-6.005-27.75-14.141-56.849-28-84.637-7,8.061-27.576-7.636-27.576-7.636l-10.606,9.121,28,95.314Z" transform="translate(-680.7 -610.759)" fill="#fff"/>
      <g id="Group_1450" data-name="Group 1450" transform="translate(218.999 283.128)">
        <path id="Path_1189" data-name="Path 1189" d="M1086.631,1319.477l-21.778-7.353-5.286,12.809,20.842,11.231Z" transform="translate(-1050.146 -1312.124)" fill="#f9b384"/>
        <path id="Path_1190" data-name="Path 1190" d="M1071.377,1393.183l-12.727-27.434-20.842-11.231-9.421,22.827Z" transform="translate(-1028.387 -1341.708)" fill="#d3dfff"/>
        <rect id="Rectangle_1270" data-name="Rectangle 1270" width="7.526" height="1.208" transform="matrix(0.963, -0.268, 0.268, 0.963, 26.371, 33.228)" fill="#708cd5"/>
        <rect id="Rectangle_1271" data-name="Rectangle 1271" width="7.526" height="1.208" transform="translate(28.989 38.667) rotate(-15.53)" fill="#708cd5"/>
        <rect id="Rectangle_1272" data-name="Rectangle 1272" width="1.209" height="13.962" transform="translate(6.321 20.049) rotate(-63.437)" fill="#708cd5"/>
      </g>
      <path id="Path_1191" data-name="Path 1191" d="M882.237,965.779c30.015,2.15,60.871,7.509,88.33,19.411,14.8,6.414,19.709,26.712,12.96,41.36l-27.188,59.007-39.455-12.3,25.08-52.209c-75.8,2.263-84.1-25.582-84.1-25.582Z" transform="translate(-690.39 -787.297)" fill="#999"/>
      <path id="Path_1192" data-name="Path 1192" d="M862.468,807.069c-9.886,17.706-24.3,27.435-42.119,34.227l-2.03-18.032L814.6,790.173l-5.729-51,3.819-18.08,17.391-8.267C849.173,732.971,855.361,777.991,862.468,807.069Z" transform="translate(-656.195 -610.771)" fill="#ffb71c"/>
      <path id="Path_1193" data-name="Path 1193" d="M890.2,538.96c.332-6.54,2.145-10.036,7.014-12.059,9.246,8.424,26.313,8.12,34.848.353-3.082-1.074-5.333-1.862-7.554-4.18-1.274-1.329-1.914-2.216-3.562-5.5-5.928-11.822-28.063-12.626-31.185-1.245-13.7,6.647-7.08,16.726-4.845,22.853Z" transform="translate(-706.777 -467.995)" fill="#102048"/>
      <g id="Group_1451" data-name="Group 1451" transform="translate(183.614 132.625)">
        <path id="Path_1194" data-name="Path 1194" d="M925.878,829l1.559-11.385,7-3.606s3.471.586,2.01,5.072S925.878,829,925.878,829" transform="translate(-921.465 -814.009)" fill="#e28b6d"/>
        <path id="Path_1195" data-name="Path 1195" d="M911.274,835.409l4.413-2.679,5.685-9.466L929,819.447a.867.867,0,0,1,1.19.445,4.539,4.539,0,0,1,1.5,3.647,3.748,3.748,0,0,1,1.271,4.787c2.365,1,3.253,2.239,2.555,3.722a7.173,7.173,0,0,1,1.266,5.451l-11.734,8.48-11.527,4.265Z" transform="translate(-911.274 -817.74)" fill="#f9b384"/>
      </g>
      <path id="Path_1196" data-name="Path 1196" d="M856.748,929.264c-4.774,19.482-12.992,34.723-25.2,45.044l-3.722-33.091Z" transform="translate(-669.426 -761.815)" fill="#1f3c88" opacity="0.3"/>
      <path id="Path_1197" data-name="Path 1197" d="M749.63,712.806l-24.038,2.868A22.474,22.474,0,0,0,707.167,730.3c-7.364,20.117-12.354,41.672-13.548,60.177a17.7,17.7,0,0,0,21.554,18.314c18.833-4.185,34.224-16.361,47.892-30.579L760.8,758.695l-38.465,18.384Z" transform="translate(-575.742 -610.759)" fill="#ffb71c"/>
      <path id="Path_1198" data-name="Path 1198" d="M893.77,603.022c-1.46,3.184-3.845,5.34-6.933,3.924s-6.9-5.938-4.922-10.3c1.447-3.19,5.839-3.379,8.927-1.963A6.255,6.255,0,0,1,893.77,603.022Z" transform="translate(-706.791 -527.737)" fill="#f9b384"/>
      <path id="Path_1199" data-name="Path 1199" d="M800.841,827.241c-.867,2.52-1.8,5.013-2.749,7.5s-1.95,4.952-2.921,7.429l-3.068,7.37c-1.059,2.442-2.124,4.881-3.273,7.286l-.438-.178c.853-2.526,1.79-5.017,2.732-7.506l2.937-7.423c1.031-2.453,2.019-4.924,3.085-7.363s2.121-4.882,3.256-7.293Z" transform="translate(-641.907 -690.494)" fill="#1f3c88"/>
      <path id="Path_1200" data-name="Path 1200" d="M789.031,882.209c3.135-1.634,6.282-3.244,9.452-4.805,3.16-1.583,6.356-3.089,9.532-4.638l9.6-4.494c3.217-1.462,6.437-2.92,9.7-4.294l.2.426c-3.121,1.664-6.282,3.245-9.444,4.821l-9.539,4.622c-3.2,1.49-6.388,3.022-9.608,4.478-3.21,1.477-6.443,2.906-9.688,4.311Z" transform="translate(-642.352 -716.255)" fill="#1f3c88"/>
      <g id="Group_1452" data-name="Group 1452" transform="translate(187.104 115.034)" opacity="0.3">
        <path id="Path_1201" data-name="Path 1201" d="M923.161,756.615a9.968,9.968,0,0,0,6.833,2.239,10.232,10.232,0,0,0,6.5-3.067l.373.289a8.625,8.625,0,0,1-6.8,3.978,8.777,8.777,0,0,1-7.242-3.106Z" transform="translate(-922.826 -755.787)" fill="#1f3c88"/>
        <path id="Path_1202" data-name="Path 1202" d="M982.145,898.6a29.548,29.548,0,0,0,4.016-4.964,29.4,29.4,0,0,0,4.349-11.837,30.046,30.046,0,0,0,.188-6.381l.467-.069a21.892,21.892,0,0,1,.394,6.567,25.024,25.024,0,0,1-4.554,12.292,22.157,22.157,0,0,1-4.551,4.747Z" transform="translate(-964.222 -839.227)" fill="#1f3c88"/>
        <path id="Path_1203" data-name="Path 1203" d="M991.783,935.365a52.381,52.381,0,0,0,4.906-3.8c1.545-1.361,2.964-2.839,4.4-4.372l.387.271a16.87,16.87,0,0,1-4,5.005A17.937,17.937,0,0,1,992,935.784Z" transform="translate(-970.948 -875.402)" fill="#1f3c88"/>
      </g>
      <path id="Path_1204" data-name="Path 1204" d="M896.21,607.922a5.857,5.857,0,0,0-.76-1.552,4.716,4.716,0,0,0-1.166-1.185,5.513,5.513,0,0,0-3.2-.977l-.065-.348a3.817,3.817,0,0,1,1.947-.173,4.3,4.3,0,0,1,3.141,2.291,3.884,3.884,0,0,1,.454,1.9Z" transform="translate(-713.525 -534.573)" fill="#e28b6d"/>
      <path id="Path_1205" data-name="Path 1205" d="M948.035,592.045c-2.053-.564-2.582,3-2.268,4.307.295,1.221,1.287,1.573,2.137.6C948.686,596.052,949.835,592.54,948.035,592.045Z" transform="translate(-751.673 -526.444)" fill="#102048"/>
      <path id="Path_1206" data-name="Path 1206" d="M990.279,597.111a1.261,1.261,0,0,0-2.243-.627,3.044,3.044,0,0,0-.525,1.425,5.691,5.691,0,0,0-.063,2.553c.336,1,1.253,1.456,1.932.505A5.6,5.6,0,0,0,990.279,597.111Z" transform="translate(-780.728 -529.238)" fill="#102048"/>
      <path id="Path_1207" data-name="Path 1207" d="M971.113,605.047c-.02.944-.073,1.891-.046,2.8a4.155,4.155,0,0,0,.176,1.216,3.461,3.461,0,0,0,.682.993,9.147,9.147,0,0,1,.943,1.17,3.165,3.165,0,0,1,.353.783,1.452,1.452,0,0,1-.074,1.064,1.525,1.525,0,0,1-.744.653,5.8,5.8,0,0,1-.717.268,5.071,5.071,0,0,0-1.247.464l-.3-.33a4.151,4.151,0,0,1,1.249-.872c.413-.189.855-.448.861-.612a1.287,1.287,0,0,0-.315-.815,11.031,11.031,0,0,0-.863-1.026,3.345,3.345,0,0,1-.967-2.979,12.988,12.988,0,0,1,.569-2.855Z" transform="translate(-768.696 -535.504)" fill="#102048"/>
      <path id="Path_1208" data-name="Path 1208" d="M950.617,633.857,959,637.936C957.566,640.731,951.146,640.429,950.617,633.857Z" transform="translate(-755.116 -555.664)" fill="#fff"/>
      <path id="Path_1209" data-name="Path 1209" d="M996.6,627.333a3.482,3.482,0,0,1-.713.073,4.031,4.031,0,0,1,0-8.061,4.066,4.066,0,0,1,1.68.363A21.015,21.015,0,0,1,996.6,627.333Z" transform="translate(-783.902 -545.536)" fill="#fc8879" opacity="0.4"/>
      <circle id="Ellipse_122" data-name="Ellipse 122" cx="4.029" cy="4.029" r="4.029" transform="translate(186.11 71.294)" fill="#fc8879" opacity="0.4"/>
    </g>
    <g id="Group_1454" data-name="Group 1454" transform="translate(375.386 220.175)">
      <path id="Path_1210" data-name="Path 1210" d="M1261.525,233.291c-2.874-2.508-6.024-6.7-9.243-11.321,2.072-.311,3.834-.808,4.783-1.795a42.269,42.269,0,0,0,8.207,11.743C1263.816,231.438,1262.889,232.831,1261.525,233.291Z" transform="translate(-1037.446 -220.175)" fill="#c6eae9"/>
      <path id="Path_1211" data-name="Path 1211" d="M709.575,586.67c-2.588-2.259-5.425-6.036-8.324-10.195,1.866-.28,3.453-.728,4.307-1.616a38.069,38.069,0,0,0,7.391,10.575C711.638,585,710.8,586.256,709.575,586.67Z" transform="translate(-652.907 -467.693)" fill="#fbd682"/>
      <path id="Path_1212" data-name="Path 1212" d="M885.033,475.659a48.857,48.857,0,0,1,5.6-8.781,7.772,7.772,0,0,0,1.713,3.534,29.275,29.275,0,0,0-5.99,8.021C886.451,477.221,885.49,476.674,885.033,475.659Z" transform="translate(-781.16 -392.338)" fill="#fbd682"/>
      <path id="Path_1213" data-name="Path 1213" d="M1279.514,769.565a54.253,54.253,0,0,1,6.218-9.751,8.627,8.627,0,0,0,1.9,3.924,32.517,32.517,0,0,0-6.651,8.906C1281.089,771.3,1280.022,770.691,1279.514,769.565Z" transform="translate(-1056.45 -596.765)" fill="#ee6f57"/>
      <path id="Path_1214" data-name="Path 1214" d="M1467.025,244.416a54.273,54.273,0,0,1,6.217-9.751,8.631,8.631,0,0,0,1.9,3.924,32.507,32.507,0,0,0-6.651,8.906C1468.6,246.15,1467.532,245.543,1467.025,244.416Z" transform="translate(-1187.306 -230.287)" fill="#708cd5"/>
      <path id="Path_1215" data-name="Path 1215" d="M548.56,550.741a48.856,48.856,0,0,0-5.6-8.781,7.775,7.775,0,0,1-1.713,3.534,29.283,29.283,0,0,1,5.99,8.02C547.141,552.3,548.1,551.756,548.56,550.741Z" transform="translate(-541.248 -444.734)" fill="#708cd5"/>
      <path id="Path_1216" data-name="Path 1216" d="M1021.159,400.681a54.235,54.235,0,0,0-6.218-9.751,8.63,8.63,0,0,1-1.9,3.924,32.515,32.515,0,0,1,6.652,8.906C1019.584,402.415,1020.652,401.807,1021.159,400.681Z" transform="translate(-870.49 -339.337)" fill="#d3dfff"/>
      <path id="Path_1217" data-name="Path 1217" d="M1378.249,412.229a83.264,83.264,0,0,1-14.013,1.506c1.005-1.449,1.685-2.773,1.512-3.766a51.937,51.937,0,0,0,13.711-.678C1378.229,410.037,1378.72,411.175,1378.249,412.229Z" transform="translate(-1115.574 -352.15)" fill="#f5c7be"/>
      <path id="Path_1218" data-name="Path 1218" d="M694.251,321.279c3.24,1.19,7.768,1.717,12.62,2.077a11.086,11.086,0,0,1-1.362-5.193c-4.483.613-7.811.133-12.347-.935C694.269,318.257,693.827,319.826,694.251,321.279Z" transform="translate(-647.261 -287.904)" fill="#c6eae9"/>
      <path id="Path_1219" data-name="Path 1219" d="M1028.8,268.673c-3.644,2.159-8.934,3.826-14.639,5.368.725-2.584,1.133-4.894.708-6.487,5.438-.3,9.31-1.636,14.516-3.948C1028.247,265.084,1029.047,266.848,1028.8,268.673Z" transform="translate(-871.272 -250.484)" fill="#ee6f57"/>
      <path id="Path_1220" data-name="Path 1220" d="M1302.967,610.084c2.723,1.826,5.841,5.079,9.058,8.692a7.736,7.736,0,0,0-3.979,2.134,35.2,35.2,0,0,0-8.2-9.183C1301.152,611.967,1301.827,610.647,1302.967,610.084Z" transform="translate(-1070.639 -492.275)" fill="#c6eae9"/>
      <path id="Path_1221" data-name="Path 1221" d="M1148.069,619.538c2.723,1.826,5.84,5.079,9.058,8.692a7.735,7.735,0,0,0-3.979,2.134,35.2,35.2,0,0,0-8.2-9.183C1146.254,621.421,1146.929,620.1,1148.069,619.538Z" transform="translate(-962.543 -498.872)" fill="#fbd682"/>
      <path id="Path_1222" data-name="Path 1222" d="M752.656,434.375c3.065,2.055,6.575,5.718,10.2,9.785-1.989.586-3.656,1.311-4.479,2.4a39.621,39.621,0,0,0-9.23-10.338C750.614,436.495,751.373,435.01,752.656,434.375Z" transform="translate(-686.328 -369.655)" fill="#f5c7be"/>
      <path id="Path_1223" data-name="Path 1223" d="M1409.375,523.954c2.266-2.095,4.6-5.765,6.96-9.831a9.105,9.105,0,0,1-4.37-2.186,29.951,29.951,0,0,1-6.011,10.336C1407.181,521.963,1408.134,523.38,1409.375,523.954Z" transform="translate(-1144.687 -423.782)" fill="#f5c7be"/>
      <path id="Path_1224" data-name="Path 1224" d="M1673.255,510.134a48.837,48.837,0,0,1,5.6-8.782,7.772,7.772,0,0,0,1.713,3.534,29.275,29.275,0,0,0-5.99,8.021C1674.673,511.7,1673.712,511.148,1673.255,510.134Z" transform="translate(-1331.224 -416.396)" fill="#ee6f57"/>
      <path id="Path_1225" data-name="Path 1225" d="M1561.082,365.916c-.942,3.741-3.082,8.336-5.524,13.146-.946-1.974-1.93-3.572-3.011-4.187a41.942,41.942,0,0,0,6.2-12.25C1558.878,364.25,1560.263,364.7,1561.082,365.916Z" transform="translate(-1246.988 -319.584)" fill="#d3dfff"/>
      <path id="Path_1226" data-name="Path 1226" d="M1486.008,635.89a50.989,50.989,0,0,0,4.046,9.628,7.165,7.165,0,0,1,2.2-3.067,30.719,30.719,0,0,1-4.542-8.972C1487.622,634.669,1486.608,635,1486.008,635.89Z" transform="translate(-1200.553 -508.601)" fill="#d3dfff"/>
      <path id="Path_1227" data-name="Path 1227" d="M1744.227,352.963c-3.065,2.055-6.575,5.718-10.2,9.785,1.989.585,3.656,1.311,4.479,2.4a39.627,39.627,0,0,1,9.23-10.338C1746.269,355.083,1745.51,353.6,1744.227,352.963Z" transform="translate(-1373.636 -312.842)" fill="#fbd682"/>
    </g>
    <rect id="Rectangle_1273" data-name="Rectangle 1273" width="692.536" height="1.209" transform="translate(338.611 690.495)" fill="#102048"/>
    <g id="Group_1466" data-name="Group 1466" transform="translate(621.333 347.597)">
      <g id="Group_1455" data-name="Group 1455" transform="translate(277.456 136.268)">
        <path id="Path_1228" data-name="Path 1228" d="M2314.754,1109.418h-41.217s3.513-16.519,20.608-16.519C2312.716,1092.9,2314.754,1109.418,2314.754,1109.418Z" transform="translate(-2273.537 -1092.899)" fill="#d3dfff"/>
        <rect id="Rectangle_1274" data-name="Rectangle 1274" width="1.208" height="16.479" transform="matrix(0.928, -0.373, 0.373, 0.928, 13.563, 1.432)" fill="#102048"/>
      </g>
      <g id="Group_1458" data-name="Group 1458" transform="translate(100.724)">
        <rect id="Rectangle_1275" data-name="Rectangle 1275" width="16.662" height="44.49" transform="translate(82.834 105.773)" fill="#f5c7be"/>
        <rect id="Rectangle_1276" data-name="Rectangle 1276" width="16.662" height="20.902" transform="translate(82.834 105.773)" fill="#ee6f57" opacity="0.6"/>
        <path id="Rectangle_1277" data-name="Rectangle 1277" d="M10.692,0H52.147A10.692,10.692,0,0,1,62.839,10.692v0a0,0,0,0,1,0,0H0a0,0,0,0,1,0,0v0A10.692,10.692,0,0,1,10.692,0Z" transform="translate(59.745 142.03)" fill="#ee6f57"/>
        <rect id="Rectangle_1278" data-name="Rectangle 1278" width="185.662" height="116.701" fill="#f5c7be"/>
        <rect id="Rectangle_1279" data-name="Rectangle 1279" width="174.126" height="101.816" transform="translate(5.768 5.696)" fill="#fff"/>
        <g id="Group_1456" data-name="Group 1456" transform="translate(87.616 29.416)">
          <rect id="Rectangle_1280" data-name="Rectangle 1280" width="6.585" height="16.232" transform="translate(0 47.847)" fill="#d3dfff"/>
          <rect id="Rectangle_1281" data-name="Rectangle 1281" width="6.585" height="20.473" transform="translate(11.706 43.605)" fill="#d3dfff"/>
          <rect id="Rectangle_1282" data-name="Rectangle 1282" width="6.585" height="30.363" transform="translate(23.413 33.715)" fill="#d3dfff"/>
          <rect id="Rectangle_1283" data-name="Rectangle 1283" width="6.585" height="35.304" transform="translate(35.119 28.774)" fill="#d3dfff"/>
          <rect id="Rectangle_1284" data-name="Rectangle 1284" width="6.585" height="27.192" transform="translate(46.826 36.886)" fill="#d3dfff"/>
          <rect id="Rectangle_1285" data-name="Rectangle 1285" width="6.585" height="36.62" transform="translate(58.532 27.458)" fill="#d3dfff"/>
          <rect id="Rectangle_1286" data-name="Rectangle 1286" width="6.585" height="45.381" transform="translate(70.238 18.697)" fill="#d3dfff"/>
          <path id="Path_1229" data-name="Path 1229" d="M1986.485,776.277l-.184-1.194,11.785-1.813,12.03-14.19,12.15-.64,11.794,7.257,10.135-8.644,15.642-17.8.907.8-15.7,17.859-10.864,9.276-12.221-7.522-11.253.593L1998.716,774.4Z" transform="translate(-1983.972 -739.256)" fill="#d3dfff"/>
        </g>
        <g id="Group_1457" data-name="Group 1457" transform="translate(21.222 21.614)">
          <rect id="Rectangle_1287" data-name="Rectangle 1287" width="47.991" height="3.259" fill="#d3dfff"/>
          <rect id="Rectangle_1288" data-name="Rectangle 1288" width="41.928" height="3.259" transform="translate(0 7.679)" fill="#d3dfff"/>
          <rect id="Rectangle_1289" data-name="Rectangle 1289" width="45.294" height="3.259" transform="translate(0 15.357)" fill="#d3dfff" opacity="0.6"/>
          <rect id="Rectangle_1290" data-name="Rectangle 1290" width="40.605" height="3.259" transform="translate(0 23.036)" fill="#d3dfff" opacity="0.6"/>
          <rect id="Rectangle_1291" data-name="Rectangle 1291" width="28.505" height="3.259" transform="translate(0 30.714)" fill="#d3dfff" opacity="0.6"/>
          <rect id="Rectangle_1292" data-name="Rectangle 1292" width="48.205" height="30.714" transform="translate(0 41.166)" fill="#d3dfff"/>
        </g>
      </g>
      <g id="Group_1461" data-name="Group 1461" transform="translate(18.355 111.069)">
        <g id="Group_1459" data-name="Group 1459" transform="translate(6.245 6.115)">
          <rect id="Rectangle_1293" data-name="Rectangle 1293" width="51.874" height="34.757" transform="translate(0.526 0.526)" fill="#fff"/>
          <path id="Path_1230" data-name="Path 1230" d="M1489.594,1065.547h-52.926v-35.809h52.926Zm-51.875-1.053h50.822v-33.7h-50.822Z" transform="translate(-1436.668 -1029.738)" fill="#102048"/>
        </g>
        <rect id="Rectangle_1294" data-name="Rectangle 1294" width="50.85" height="14.589" transform="translate(7.235 6.641)" fill="#d3dfff" opacity="0.6"/>
        <g id="Group_1460" data-name="Group 1460">
          <rect id="Rectangle_1295" data-name="Rectangle 1295" width="64.363" height="13.878" transform="translate(0.526 0.527)" fill="#fff"/>
          <path id="Path_1231" data-name="Path 1231" d="M1481.415,1024.431H1416V1009.5h65.415Zm-64.363-1.053h63.31v-12.826h-63.31Z" transform="translate(-1416 -1009.5)" fill="#102048"/>
        </g>
      </g>
      <g id="Group_1462" data-name="Group 1462" transform="translate(0 151.792)">
        <rect id="Rectangle_1296" data-name="Rectangle 1296" width="340.741" height="13.059" transform="translate(0.649 1.03)" fill="#d3dfff"/>
        <path id="Path_1232" data-name="Path 1232" d="M1697.236,1336.377h-1.209V1145.49H1356.459v190.887h-1.209v-192.1h341.986Z" transform="translate(-1355.25 -1144.281)" fill="#102048"/>
      </g>
      <g id="Group_1463" data-name="Group 1463" transform="translate(45.094 142.386)">
        <rect id="Rectangle_1297" data-name="Rectangle 1297" width="1.21" height="93.446" transform="translate(73.286 107.81) rotate(-4.279)" fill="#102048"/>
        <rect id="Rectangle_1298" data-name="Rectangle 1298" width="106.556" height="1.208" transform="translate(8.153 201.076) rotate(-68.802)" fill="#102048"/>
        <rect id="Rectangle_1299" data-name="Rectangle 1299" width="1.208" height="106.732" transform="translate(103.728 102.161) rotate(-21.179)" fill="#102048"/>
        <path id="Path_1233" data-name="Path 1233" d="M1799.465,1392.285l-83-14.334L1702.4,1401.8l51.579,5.373,45.628-12.1A1.414,1.414,0,0,0,1799.465,1392.285Z" transform="translate(-1642.603 -1297.943)" fill="#89a6a5"/>
        <path id="Path_1234" data-name="Path 1234" d="M1661.274,1210.392c-14.661,10.144-51.507,23.655-85.3,24.516-29.212.744-56.994-13.588-63.357-47.952-4.677-25.254-8.57-53.226-8.079-67.381a6.7,6.7,0,0,1,6.891-6.422l34.434.872a30.965,30.965,0,0,1,25.552,14.718C1590.051,1158.909,1589.07,1231.214,1661.274,1210.392Z" transform="translate(-1504.495 -1113.151)" fill="#c6eae9"/>
        <path id="Path_1235" data-name="Path 1235" d="M1687.227,1780.056" transform="translate(-1632.015 -1578.554)" fill="none" stroke="#102048" stroke-miterlimit="10" stroke-width="2.894"/>
        <path id="Path_1236" data-name="Path 1236" d="M1746.991,1477.224" transform="translate(-1673.722 -1367.221)" fill="none" stroke="#102048" stroke-miterlimit="10" stroke-width="2.894"/>
      </g>
      <g id="Group_1465" data-name="Group 1465" transform="translate(243.995 216.69)">
        <g id="Group_1464" data-name="Group 1464">
          <rect id="Rectangle_1300" data-name="Rectangle 1300" width="57.697" height="126.312" transform="translate(0.553 0.552)" fill="#fff"/>
          <path id="Path_1237" data-name="Path 1237" d="M2221.594,1486.487h-58.8V1359.07h58.8Zm-57.7-1.1h56.592V1360.175H2163.9Z" transform="translate(-2162.793 -1359.07)" fill="#102048"/>
        </g>
        <circle id="Ellipse_123" data-name="Ellipse 123" cx="6.949" cy="6.949" r="6.949" transform="translate(22.452 20.018)" fill="#fbd682"/>
        <rect id="Rectangle_1301" data-name="Rectangle 1301" width="21.15" height="51.365" transform="translate(18.826 58.089)" fill="#fbd682"/>
      </g>
    </g>
  </g>
</svg>
