<svg xmlns="http://www.w3.org/2000/svg" xmlns:xlink="http://www.w3.org/1999/xlink" width="1972.854" height="589.248" viewBox="0 0 1972.854 589.248">
  <defs>
    <clipPath id="clip-path">
      <rect id="Rectangle_12" data-name="Rectangle 12" width="30.353" height="59.541" rx="5.924" fill="none"/>
    </clipPath>
    <clipPath id="clip-path-2">
      <path id="Path_120" data-name="Path 120" d="M542.668,247.021l9.454,9.778,12.385-9.941V222.574H542.018S541.692,247.021,542.668,247.021Z" transform="translate(-541.966 -222.574)" fill="none"/>
    </clipPath>
  </defs>
  <g id="Group_1711" data-name="Group 1711" transform="translate(34.64 -329.751)">
    <g id="Group_42" data-name="Group 42" transform="translate(-50.443 58.453)">
      <path id="Path_9" data-name="Path 9" d="M260.757,135.945a150.277,150.277,0,0,0,20.44,30.443" transform="translate(862.772 249.162)" fill="none"/>
      <g id="Group_3" data-name="Group 3" transform="translate(833.417 523.489)">
        <path id="Path_11" data-name="Path 11" d="M147.1,261.347c-17.979-44.173-19.429-88.964-19.429-88.964s15.907,2.823,37.737,11.234a67.206,67.206,0,0,1,6.87,28.057c3.327-7.408,5.848-15.342,4.79-23.24a228.1,228.1,0,0,1,49.689,29.63,53.854,53.854,0,0,1-1.834,33.177,57.449,57.449,0,0,0,9.025-27.165c32.42,28.487,58.812,71.665,55.376,136.194l-84.007-24.263a146.981,146.981,0,0,1-21.48-17.848c8.32-3.728,15.6-10.083,21.317-16.89-10.471,6.836-24.127,8.1-34.016,2.4a173.907,173.907,0,0,1-18.507-29.941,31.512,31.512,0,0,0,16.035.989C159.088,273.084,152.535,267.835,147.1,261.347Z" transform="translate(-127.674 -172.383)" fill="#599992"/>
      </g>
      <g id="Group_4" data-name="Group 4" transform="translate(747.519 590.51)">
        <path id="Path_12" data-name="Path 12" d="M148.362,319.739C106.223,266.3,86.5,205.465,86.5,205.465s22.923-2.43,56.186.459a95.922,95.922,0,0,1,20.526,35.747c1.629-11.476,1.942-23.351-2.637-33.759,24.221,3.28,52.068,9.5,79.856,20.945a76.84,76.84,0,0,1,10.623,46.212,81.948,81.948,0,0,0,1.619-40.815c55.725,26.217,109,74.962,129.845,164.792H257.74a209.819,209.819,0,0,1-36.517-15.966c9.932-8.405,17.4-20,22.537-31.6-11.647,13.519-29.868,20.66-45.682,16.761a248.048,248.048,0,0,1-37.228-33.721,44.932,44.932,0,0,0,22.377-4.992C169.441,331.082,158.38,326.484,148.362,319.739Z" transform="translate(-86.5 -204.509)" fill="#7bd1cc"/>
        <line id="Line_1" data-name="Line 1" x1="246.106" y1="153.909" transform="translate(0 0.956)" fill="none" stroke="#599992" stroke-linecap="round" stroke-linejoin="round" stroke-width="2.08"/>
        <path id="Path_13" data-name="Path 13" d="M179.911,210.446l17.345,72.292L109.72,295" transform="translate(-61.278 -198.06)" fill="none" stroke="#599992" stroke-linecap="round" stroke-linejoin="round" stroke-width="2.08"/>
        <path id="Path_14" data-name="Path 14" d="M246.538,230.71v76.4L130.7,323.954" transform="translate(-38.49 -176.049)" fill="none" stroke="#599992" stroke-linecap="round" stroke-linejoin="round" stroke-width="2.08"/>
      </g>
      <g id="Group_7" data-name="Group 7" transform="translate(995.372 350.572)" opacity="0.047">
        <path id="Path_21" data-name="Path 21" d="M258.629,168.952h-78.8a17.448,17.448,0,0,1-17.4-17.4h0a17.447,17.447,0,0,1,17.4-17.4h78.8a17.449,17.449,0,0,1,17.4,17.4h0A17.449,17.449,0,0,1,258.629,168.952Z" transform="translate(-162.437 -103.458)"/>
        <circle id="Ellipse_3" data-name="Ellipse 3" cx="29.677" cy="29.677" r="29.677" transform="translate(45.026)"/>
        <circle id="Ellipse_4" data-name="Ellipse 4" cx="16.885" cy="16.885" r="16.885" transform="translate(18.42 14.327)"/>
      </g>
      <g id="Group_12" data-name="Group 12" transform="translate(905.804 551.146)">
        <path id="Rectangle_8" data-name="Rectangle 8" d="M8.74,0h173.1a0,0,0,0,1,0,0V54.546a0,0,0,0,1,0,0H8.74A8.74,8.74,0,0,1,0,45.806V8.74A8.74,8.74,0,0,1,8.74,0Z" transform="translate(190.99 54.546) rotate(180)" fill="#f2ac30"/>
        <path id="Path_37" data-name="Path 37" d="M176.541,244.08H316.687A15.192,15.192,0,0,0,331.8,228.81v-7.323a15.192,15.192,0,0,0-15.111-15.27H176.541Z" transform="translate(-166.966 -198.57)" fill="#fefefe"/>
        <path id="Path_38" data-name="Path 38" d="M177.7,212.367h152.1a4.611,4.611,0,0,0,4.575-4.622h0a4.613,4.613,0,0,0-4.575-4.622H177.7a4.613,4.613,0,0,0-4.575,4.622h0A4.611,4.611,0,0,0,177.7,212.367Z" transform="translate(-171.986 -203.123)" fill="#ffc757"/>
        <path id="Path_39" data-name="Path 39" d="M177.242,230.6H329.348a4.611,4.611,0,0,0,4.575-4.622h0a4.611,4.611,0,0,0-4.575-4.622H177.242a4.611,4.611,0,0,0-4.575,4.622h0A4.611,4.611,0,0,0,177.242,230.6Z" transform="translate(-172.667 -176.289)" fill="#ffc757"/>
        <path id="Path_40" data-name="Path 40" d="M248.7,212.474c-24.518.578-46.82.578-71.41,0" transform="translate(-165.858 -189.362)" fill="none" stroke="#4c3845" stroke-linecap="round" stroke-linejoin="round" stroke-width="1.395"/>
        <path id="Path_41" data-name="Path 41" d="M242.392,212.474H212.327" transform="translate(-114.303 -189.362)" fill="none" stroke="#4c3845" stroke-linecap="round" stroke-linejoin="round" stroke-width="1.395"/>
        <path id="Path_42" data-name="Path 42" d="M190.316,218.084H176.369" transform="translate(-167.219 -181.106)" fill="none" stroke="#4c3845" stroke-linecap="round" stroke-linejoin="round" stroke-width="1.395"/>
        <path id="Path_43" data-name="Path 43" d="M274.8,218.084c-29.736.578-57.183.578-86.054,0" transform="translate(-149 -181.106)" fill="none" stroke="#4c3845" stroke-linecap="round" stroke-linejoin="round" stroke-width="1.395"/>
      </g>
      <g id="Group_13" data-name="Group 13" transform="translate(891.497 497.867)">
        <path id="Rectangle_9" data-name="Rectangle 9" d="M8.675,0H181.412a0,0,0,0,1,0,0V53.857a0,0,0,0,1,0,0H8.675A8.675,8.675,0,0,1,0,45.182V8.675A8.675,8.675,0,0,1,8.675,0Z" transform="translate(0)" fill="#f5a2a2"/>
        <path id="Path_44" data-name="Path 44" d="M332.328,222.005H192.514a15.077,15.077,0,0,1-15.077-15.077V199.7a15.075,15.075,0,0,1,15.077-15.074H332.328Z" transform="translate(-151.341 -177.071)" fill="#fefefe"/>
        <path id="Path_45" data-name="Path 45" d="M334.732,190.695H182.984a4.578,4.578,0,0,1-4.565-4.565h0a4.577,4.577,0,0,1,4.565-4.563H334.732a4.577,4.577,0,0,1,4.563,4.563h0A4.577,4.577,0,0,1,334.732,190.695Z" transform="translate(-149.896 -181.567)" fill="#f5a2a2"/>
        <path id="Path_46" data-name="Path 46" d="M335.191,208.7H183.444a4.577,4.577,0,0,1-4.563-4.563h0a4.577,4.577,0,0,1,4.563-4.565H335.191a4.578,4.578,0,0,1,4.565,4.565h0A4.577,4.577,0,0,1,335.191,208.7Z" transform="translate(-149.216 -155.073)" fill="#f5a2a2"/>
        <path id="Path_47" data-name="Path 47" d="M210.53,190.8c24.462.571,46.711.571,71.242,0" transform="translate(-102.641 -167.981)" fill="none" stroke="#4c3845" stroke-linecap="round" stroke-linejoin="round" stroke-width="1.385"/>
        <path id="Path_48" data-name="Path 48" d="M192.268,190.8h30" transform="translate(-129.515 -167.981)" fill="none" stroke="#4c3845" stroke-linecap="round" stroke-linejoin="round" stroke-width="1.385"/>
        <path id="Path_49" data-name="Path 49" d="M234.647,196.339h13.915" transform="translate(-67.15 -159.828)" fill="none" stroke="#4c3845" stroke-linecap="round" stroke-linejoin="round" stroke-width="1.385"/>
        <path id="Path_50" data-name="Path 50" d="M193.191,196.339c29.664.571,57.048.571,85.852,0" transform="translate(-128.157 -159.828)" fill="none" stroke="#4c3845" stroke-linecap="round" stroke-linejoin="round" stroke-width="1.385"/>
      </g>
      <g id="Group_16" data-name="Group 16" transform="translate(1204.078 273.892)">
        <path id="Path_51" data-name="Path 51" d="M390.264,273.245c-6.4-12.027-16.938-22.037-17.294-36.461-.25-10.092,4.9-19.37,7.353-29.13,4.5-17.927-.922-38.335-14.543-51.353-11.772-11.248-27.964-15.074-42.86-12.539V363.147c31.8,1.419,66.2-21.3,72.767-51.39A57.058,57.058,0,0,0,390.264,273.245Z" transform="translate(-249.826 -14.331)" fill="#f2ac30"/>
        <path id="Path_52" data-name="Path 52" d="M300.013,272.768c6.4-12.027,16.938-22.037,17.3-36.461.247-10.092-4.9-19.37-7.356-29.13-4.5-17.927.924-38.335,14.543-51.353,11.77-11.248,27.964-15.074,42.86-12.539V362.67c-31.8,1.419-66.2-21.3-72.767-51.39A57.073,57.073,0,0,1,300.013,272.768Z" transform="translate(-293.347 -15.033)" fill="#f2ac30"/>
        <g id="Group_14" data-name="Group 14" transform="translate(65.813 31.986)">
          <path id="Path_53" data-name="Path 53" d="M337.1,236.278a9.491,9.491,0,0,1-17.025-7.012c.583-5.872,1.985-74.186,2.736-116.057a9.489,9.489,0,0,1,18.975.339c-.759,42.336-2.155,114.055-2.973,118.729A9.462,9.462,0,0,1,337.1,236.278ZM320.12,229c-.01.054-.022.119-.032.2C320.1,229.133,320.107,229.069,320.12,229Z" transform="translate(-319.974 -103.889)" fill="#914b29"/>
        </g>
        <g id="Group_15" data-name="Group 15" transform="translate(45.598)">
          <path id="Path_54" data-name="Path 54" d="M333.817,149.431h0a15.8,15.8,0,0,1-15.371-16.12l.64-26.988A15.793,15.793,0,0,1,335.2,90.953h0a15.8,15.8,0,0,1,15.371,16.117l-.64,26.99A15.8,15.8,0,0,1,333.817,149.431Z" transform="translate(-302.015 -90.948)" fill="#f2ac30"/>
          <path id="Path_55" data-name="Path 55" d="M328.358,99.348l-11.594-.274a2.115,2.115,0,0,1-2.059-2.158h0a2.116,2.116,0,0,1,2.158-2.059l11.594.274a2.116,2.116,0,0,1,2.059,2.158h0A2.116,2.116,0,0,1,328.358,99.348Z" transform="translate(-307.515 -85.196)" fill="#9e6446"/>
          <path id="Path_56" data-name="Path 56" d="M328.223,105.034l-11.594-.274a2.116,2.116,0,0,1-2.059-2.158h0a2.116,2.116,0,0,1,2.158-2.059l11.594.274a2.116,2.116,0,0,1,2.059,2.158h0A2.116,2.116,0,0,1,328.223,105.034Z" transform="translate(-307.714 -76.829)" fill="#9e6446"/>
          <path id="Path_57" data-name="Path 57" d="M328.089,110.578l-11.594-.274a2.114,2.114,0,0,1-2.056-2.16h0a2.114,2.114,0,0,1,2.158-2.056l11.594.274a2.116,2.116,0,0,1,2.059,2.158h0A2.118,2.118,0,0,1,328.089,110.578Z" transform="translate(-307.907 -68.67)" fill="#9e6446"/>
          <path id="Path_58" data-name="Path 58" d="M323.476,98.567a5.448,5.448,0,1,1-5.316-5.576A5.445,5.445,0,0,1,323.476,98.567Z" transform="translate(-310.637 -87.944)" fill="#9e6446"/>
          <path id="Path_59" data-name="Path 59" d="M322.687,104.8a5.447,5.447,0,1,1-5.317-5.573A5.449,5.449,0,0,1,322.687,104.8Z" transform="translate(-311.795 -78.761)" fill="#9e6446"/>
          <path id="Path_60" data-name="Path 60" d="M323.413,110.226a5.448,5.448,0,1,1-5.316-5.573A5.451,5.451,0,0,1,323.413,110.226Z" transform="translate(-310.73 -70.782)" fill="#9e6446"/>
        </g>
        <path id="Path_61" data-name="Path 61" d="M344.241,184.544a16.793,16.793,0,1,1-23.488,3.51A16.794,16.794,0,0,1,344.241,184.544Z" transform="translate(-257.864 41.94)" fill="#4a1801"/>
        <path id="Path_62" data-name="Path 62" d="M350.705,223.193l-28.112-.457a4.937,4.937,0,0,1-4.839-5h0a4.936,4.936,0,0,1,5-4.839l28.112.457a4.936,4.936,0,0,1,4.839,5h0A4.937,4.937,0,0,1,350.705,223.193Z" transform="translate(-257.431 88.512)" fill="#9e6446"/>
      </g>
      <g id="Group_18" data-name="Group 18" transform="translate(1050.352 416.066)">
        <circle id="Ellipse_6" data-name="Ellipse 6" cx="104.232" cy="104.232" r="104.232" transform="matrix(0.23, -0.973, 0.973, 0.23, 0, 202.888)" fill="#2d1a14"/>
        <circle id="Ellipse_7" data-name="Ellipse 7" cx="84.76" cy="84.76" r="84.76" transform="matrix(0.924, -0.383, 0.383, 0.924, 14.647, 79.52)" fill="none" stroke="#fff5e1" stroke-linecap="round" stroke-linejoin="round" stroke-width="0.954"/>
        <circle id="Ellipse_8" data-name="Ellipse 8" cx="44.169" cy="44.169" r="44.169" transform="matrix(0.23, -0.973, 0.973, 0.23, 72.257, 158.231)" fill="#fa5b41"/>
      </g>
      <path id="Path_63" data-name="Path 63" d="M453.364,478.538,182.207,476.18V225.065H453.364Z" transform="translate(747.176 382.008)" fill="#ead4c5"/>
      <path id="Path_64" data-name="Path 64" d="M397.425,477.359,258,478.538V225.065H397.425Z" transform="translate(858.71 380.312)" fill="#eabb9b"/>
      <path id="Path_65" data-name="Path 65" d="M357.98,306.461l-209.288-1.523,61.26-80.351,209.288,1.523Z" transform="translate(697.855 379.61)" fill="#eabb9b"/>
      <path id="Path_66" data-name="Path 66" d="M319.66,306.461l209.288-1.523-61.26-80.351L258.4,226.111Z" transform="translate(859.304 379.61)" fill="#ead4c5"/>
      <path id="Path_67" data-name="Path 67" d="M286.4,196.158a7.747,7.747,0,1,1-7.746,7.748A7.748,7.748,0,0,1,286.4,196.158Z" transform="translate(889.106 337.773)" fill="#2d1a14"/>
      <g id="Group_38" data-name="Group 38" transform="translate(872.883 350.427)">
        <path id="Path_140" data-name="Path 140" d="M519.939,133.75l5.42,9.909,9.91,5.42-9.91,5.42-5.42,9.909-5.42-9.909-9.91-5.42,9.91-5.42Z" transform="translate(283.132 -69.558)" fill="#feebd7"/>
        <path id="Path_141" data-name="Path 141" d="M532.405,157.108l2.075,3.794,3.794,2.075-3.794,2.075-2.075,3.793-2.075-3.793-3.794-2.075,3.794-2.075Z" transform="translate(304.824 -46.45)" fill="#feebd7"/>
        <path id="Path_142" data-name="Path 142" d="M601.089,299.483l2.075,3.793,3.794,2.075-3.794,2.075-2.075,3.793-2.075-3.793-3.793-2.075,3.793-2.075Z" transform="translate(372.775 94.406)" fill="#feebd7"/>
        <path id="Path_143" data-name="Path 143" d="M628.454,277.117l2.71,4.955,4.955,2.71-4.955,2.71-2.71,4.955-2.71-4.955-4.955-2.71,4.955-2.71Z" transform="translate(398.071 72.278)" fill="#feebd7"/>
        <path id="Path_144" data-name="Path 144" d="M271.955,134.231l2.566,4.691,4.691,2.566-4.691,2.566-2.566,4.691-2.566-4.691-4.691-2.566,4.691-2.566Z" transform="translate(45.78 -69.083)" fill="#feebd7"/>
        <path id="Path_145" data-name="Path 145" d="M259.242,101.482l5.349,9.781,9.78,5.349-9.78,5.349-5.349,9.781-5.349-9.781-9.781-5.349,9.781-5.349Z" transform="translate(25.414 -101.482)" fill="#feebd7"/>
        <path id="Path_146" data-name="Path 146" d="M340.8,262.7l5.349,9.781,9.78,5.349-9.78,5.349-5.349,9.78-5.349-9.78-9.781-5.349,9.781-5.349Z" transform="translate(106.105 58.013)" fill="#feebd7"/>
        <path id="Path_147" data-name="Path 147" d="M297.2,121.148l2.71,4.955,4.955,2.71-4.955,2.71-2.71,4.955-2.71-4.955-4.955-2.71,4.955-2.71Z" transform="translate(70.351 -82.027)" fill="#feebd7"/>
        <path id="Path_148" data-name="Path 148" d="M353.29,278.6l3.165,5.787,5.787,3.165-5.787,3.165L353.29,296.5l-3.165-5.787-5.787-3.165,5.787-3.165Z" transform="translate(124.57 73.743)" fill="#feebd7"/>
        <path id="Path_149" data-name="Path 149" d="M140.135,306.849l1.423,2.6,2.6,1.423-2.6,1.423-1.423,2.6-1.423-2.6-2.6-1.423,2.6-1.423Z" transform="translate(-81.436 101.692)" fill="#feebd7"/>
        <path id="Path_150" data-name="Path 150" d="M123.474,281.969l4.329,7.915,7.915,4.329-7.915,4.329-4.329,7.915-4.329-7.915-7.915-4.329,7.915-4.329Z" transform="translate(-106.049 77.079)" fill="#feebd7"/>
        <path id="Path_151" data-name="Path 151" d="M114.665,174.909l2.135,3.9,3.9,2.135-3.9,2.135-2.135,3.9-2.135-3.9-3.9-2.135,3.9-2.135Z" transform="translate(-108.626 -28.839)" fill="#feebd7"/>
        <path id="Path_152" data-name="Path 152" d="M153.185,135.272l5.737,10.49,10.491,5.737-10.491,5.737-5.737,10.49-5.737-10.49-10.49-5.737,10.49-5.737Z" transform="translate(-80.597 -68.053)" fill="#feebd7"/>
      </g>
      <g id="Group_40" data-name="Group 40" transform="translate(960.377 717.713)">
        <g id="Group_39" data-name="Group 39">
          <path id="Path_153" data-name="Path 153" d="M248.1,275.325a9.621,9.621,0,0,0-16.664,0L206.073,319.26H228.29l11.481-19.884,11.938,22.353,16.053-12.351Z" transform="translate(-178.079 -270.515)" fill="#fff"/>
          <path id="Path_154" data-name="Path 154" d="M221.031,316.137l8.853-15.336H207.667l-11.631,20.146a9.62,9.62,0,0,0,8.332,14.429h37.549V316.137Z" transform="translate(-194.747 -225.946)" fill="#fff"/>
          <path id="Path_155" data-name="Path 155" d="M270.269,328.16,251.646,295.9c-4.817,4.459-9.429,9.214-14.548,13.282l8.179,14.167H226.393v19.239h35.544a9.62,9.62,0,0,0,8.332-14.429Z" transform="translate(-148.176 -233.158)" fill="#fff"/>
        </g>
        <path id="Path_156" data-name="Path 156" d="M210.547,317.5l-3.07-15.591-3.07-15.59,15.037,5.137,15.037,5.137-11.967,10.454Z" transform="translate(-180.53 -247.262)" fill="#fff"/>
        <path id="Path_157" data-name="Path 157" d="M240.455,320.73l-13.674,8.094-13.674,8.094-.173-15.889-.173-15.889,13.847,7.794Z" transform="translate(-168.236 -219.56)" fill="#fff"/>
        <path id="Path_158" data-name="Path 158" d="M228.574,290.467l14.263,7,14.264,7-13.2,8.851-13.2,8.851-1.067-15.854Z" transform="translate(-144.966 -241.154)" fill="#fff"/>
      </g>
      <g id="Group_41" data-name="Group 41" transform="translate(1137.308 732.703)">
        <path id="Path_159" data-name="Path 159" d="M317.877,305.024c11.6-6.2,21.617-17.351,29.392-28.444a67.645,67.645,0,0,0,26.995,27.2c16.854,8.984,36.493,10.319,54.816,15.524,35.752,10.153,66.889,36.123,83.743,69.836H270.879V305.864C285.5,313.373,302.471,313.264,317.877,305.024Z" transform="translate(-259.641 -276.58)" fill="#f5e9e1"/>
        <path id="Path_160" data-name="Path 160" d="M317.877,305c11.579-6.191,21.587-17.319,29.36-28.4a67.883,67.883,0,0,0,27.027,27.156c16.854,8.984,36.493,10.319,54.816,15.524,35.752,10.153,66.889,36.123,83.743,69.836H270.879V305.836C285.5,313.345,302.471,313.236,317.877,305Z" transform="translate(-259.641 -276.552)" fill="#f5e9e1"/>
        <path id="Path_161" data-name="Path 161" d="M514.055,342.21H278.515a12.339,12.339,0,0,1-12.183-12.42h0a12.339,12.339,0,0,1,12.183-12.422h235.54a12.339,12.339,0,0,1,12.183,12.422h0A12.339,12.339,0,0,1,514.055,342.21Z" transform="translate(-266.332 -216.556)" fill="#f5e9e1"/>
        <path id="Path_162" data-name="Path 162" d="M336.382,337.931s-9.788-39.15-66.064-35.48" transform="translate(-260.466 -238.866)" fill="none" stroke="#b7a091" stroke-linecap="round" stroke-linejoin="round" stroke-width="1.485"/>
        <path id="Path_163" data-name="Path 163" d="M316.181,283.757,299.807,301.5s60.041,43.664,125.536,31.385" transform="translate(-217.07 -266.018)" fill="none" stroke="#b7a091" stroke-linecap="round" stroke-linejoin="round" stroke-width="1.485"/>
        <path id="Path_164" data-name="Path 164" d="M270.547,295.9s120.079,10.915,163.742,53.216" transform="translate(-260.129 -248.144)" fill="none" stroke="#009bcf" stroke-linecap="round" stroke-linejoin="round" stroke-width="1.656"/>
        <path id="Path_165" data-name="Path 165" d="M269.995,298.663s120.079,10.917,163.742,53.216" transform="translate(-260.941 -244.082)" fill="none" stroke="#ff3e3e" stroke-linecap="round" stroke-linejoin="round" stroke-width="1.656"/>
        <line id="Line_20" data-name="Line 20" x1="20.468" y2="21.833" transform="translate(108.664 13.645)" fill="none" stroke="#b7a091" stroke-linecap="round" stroke-linejoin="round" stroke-width="1.485"/>
        <line id="Line_21" data-name="Line 21" x1="20.468" y2="21.832" transform="translate(123.673 21.832)" fill="none" stroke="#b7a091" stroke-linecap="round" stroke-linejoin="round" stroke-width="1.485"/>
        <line id="Line_22" data-name="Line 22" x1="20.468" y2="21.832" transform="translate(135.954 25.926)" fill="none" stroke="#b7a091" stroke-linecap="round" stroke-linejoin="round" stroke-width="1.485"/>
      </g>
      <line id="Line_23" data-name="Line 23" x1="995.569" transform="translate(840.76 859.083)" fill="none" stroke="#2d1a14" stroke-linecap="round" stroke-linejoin="round" stroke-width="1.431"/>
      <g id="Group_2" data-name="Group 2" transform="matrix(0.839, -0.545, 0.545, 0.839, 1673.523, 631.27)">
        <path id="Path_10" data-name="Path 10" d="M137.248,64.237c31.4-21.013,52.236-49.766,52.236-49.766A179.722,179.722,0,0,0,159.73,5.1a53.248,53.248,0,0,0-16.962,15.367c1.1-6.34,2.972-12.666,7.172-17.38A180.711,180.711,0,0,0,104.177.475a42.674,42.674,0,0,0-13.52,22.588A45.53,45.53,0,0,1,96.789,1.229C62.868,5.538,26.385,22.161,0,66.038L65.9,87.4a116.559,116.559,0,0,0,22.018-2.18c-3.8-6.14-5.767-13.544-6.494-20.547C85.265,73.8,93.666,80.7,102.686,81.345A137.849,137.849,0,0,0,128.12,69.907a24.964,24.964,0,0,1-10.963-6.468C124.173,66.618,130.8,66.083,137.248,64.237Z" transform="translate(0 0)" fill="#599992"/>
      </g>
      <g id="Group_5" data-name="Group 5" transform="matrix(0.839, -0.545, 0.545, 0.839, 1534.288, 568.233)">
        <path id="Path_15" data-name="Path 15" d="M185.516,91.3C218.9,48.953,234.529.757,234.529.757s-18.162-1.924-44.514.364a75.993,75.993,0,0,0-16.264,28.324c-1.291-9.092-1.539-18.5,2.089-26.748a257.872,257.872,0,0,0-63.269,16.6A60.876,60.876,0,0,0,104.156,55.9a64.962,64.962,0,0,1-1.283-32.337C58.723,44.338,16.511,82.957,0,154.128H98.858A166.35,166.35,0,0,0,127.79,141.48c-7.868-6.659-13.788-15.849-17.856-25.034,9.228,10.711,23.664,16.37,36.193,13.281a196.619,196.619,0,0,0,29.5-26.717A35.625,35.625,0,0,1,157.9,99.054C168.816,100.283,177.579,96.638,185.516,91.3Z" transform="translate(0 0)" fill="#7bd1cc"/>
        <line id="Line_2" data-name="Line 2" y1="121.94" x2="194.986" transform="translate(39.543 0.757)" fill="none" stroke="#599992" stroke-linecap="round" stroke-linejoin="round" stroke-width="2.08"/>
        <path id="Path_16" data-name="Path 16" d="M13.742,0,0,57.276l69.354,9.711" transform="translate(126.796 9.813)" fill="none" stroke="#599992" stroke-linecap="round" stroke-linejoin="round" stroke-width="2.08"/>
        <path id="Path_17" data-name="Path 17" d="M0,0V60.533L91.777,73.875" transform="translate(69.696 43.307)" fill="none" stroke="#599992" stroke-linecap="round" stroke-linejoin="round" stroke-width="2.08"/>
      </g>
      <path id="Path_18" data-name="Path 18" d="M488.571,222.3a17.683,17.683,0,1,1-17.682-17.682A17.684,17.684,0,0,1,488.571,222.3Z" transform="translate(1118.89 350.228)" fill="#ffc757"/>
      <path id="Path_19" data-name="Path 19" d="M489.287,244.483A17.683,17.683,0,1,1,471.6,226.8,17.683,17.683,0,0,1,489.287,244.483Z" transform="translate(1119.943 382.867)" fill="#ffc757"/>
      <g id="Group_11" data-name="Group 11" transform="translate(1300.869 296.406)">
        <g id="Group_9" data-name="Group 9" transform="translate(34.565 4.487)">
          <g id="Group_8" data-name="Group 8">
            <path id="Path_22" data-name="Path 22" d="M636.7,570.972l2.19.017,3.445-416.206a51.163,51.163,0,0,0-50.589-51.432l-178.31-1.478a51.163,51.163,0,0,0-51.432,50.589l-3.443,415.964,2.919.022c2.825.025,2.783,4.4-.035,4.382l-2.921-.025-.292,35.376a51.161,51.161,0,0,0,50.589,51.432l178.308,1.476A51.163,51.163,0,0,0,638.565,610.5l.289-35.132-2.19-.017C633.842,575.327,633.881,570.948,636.7,570.972Z" transform="translate(-356.308 -101.872)" fill="#2d1a14"/>
            <path id="Path_23" data-name="Path 23" d="M476.571,209.836h0a7.321,7.321,0,0,1-7.239-7.361l.531-64.242a7.324,7.324,0,0,1,7.361-7.242h0a7.322,7.322,0,0,1,7.239,7.363l-.531,64.242A7.323,7.323,0,0,1,476.571,209.836Z" transform="translate(-192.814 -59.021)" fill="#2d1a14"/>
            <path id="Path_24" data-name="Path 24" d="M364.694,207.051h0a7.32,7.32,0,0,1-7.239-7.36l.45-54.509a7.325,7.325,0,0,1,7.363-7.239h0a7.325,7.325,0,0,1,7.239,7.36l-.452,54.509A7.321,7.321,0,0,1,364.694,207.051Z" transform="translate(-357.454 -48.792)" fill="#2d1a14"/>
            <rect id="Rectangle_6" data-name="Rectangle 6" width="14.601" height="32.299" rx="2.205" transform="translate(0.785 173.78) rotate(0.478)" fill="#2d1a14"/>
            <rect id="Rectangle_7" data-name="Rectangle 7" width="14.601" height="32.299" rx="2.205" transform="translate(1.436 212.723) rotate(0.478)" fill="#2d1a14"/>
            <path id="Path_25" data-name="Path 25" d="M573.61,647.011l-159.7-1.322a53.623,53.623,0,0,1-53.021-53.906l3.586-433.307a53.621,53.621,0,0,1,53.906-53.021l159.7,1.322A53.621,53.621,0,0,1,631.1,160.683L627.516,593.99A53.624,53.624,0,0,1,573.61,647.011Z" transform="translate(-352.4 -96.602)" fill="#2d1a14"/>
            <path id="Path_26" data-name="Path 26" d="M567.312,636.359l-152.9-1.263a51.943,51.943,0,0,1-51.358-52.215l3.5-423.366a51.938,51.938,0,0,1,52.213-51.358l152.9,1.265a51.94,51.94,0,0,1,51.358,52.215L619.527,585A51.938,51.938,0,0,1,567.312,636.359Z" transform="translate(-349.211 -92.626)" fill="#8ddae2"/>
            <path id="Path_27" data-name="Path 27" d="M570.794,197.148c15.042-9.837,33.184-17.079,51.39-16.94l.153-18.572a51.94,51.94,0,0,0-51.358-52.213l-152.9-1.265a51.939,51.939,0,0,0-52.215,51.358L363.527,442.2c15,2.991,29.667,11.041,41.338,19.246,19.82,13.94,38.992,33.347,47.467,56.511,7.983,21.824,3.96,48.745-8.193,68.251C431.647,606.26,412.05,619.9,390,629.068a51.323,51.323,0,0,0,23.723,6.028l152.9,1.263A51.938,51.938,0,0,0,618.833,585l2.121-256.05a211.306,211.306,0,0,1-23.681-.924c-19.363-1.94-39.8-7.39-53.513-22.072-14.017-15-20.05-38.078-14.239-57.8C535.826,226.755,552.47,209.133,570.794,197.148Z" transform="translate(-348.517 -92.626)" fill="#c7fcff"/>
            <path id="Path_28" data-name="Path 28" d="M519.12,131.052,399.4,130.061a11.714,11.714,0,0,1-11.582-11.777h0A11.712,11.712,0,0,1,399.591,106.7l119.723.991A11.718,11.718,0,0,1,530.9,119.468h0A11.718,11.718,0,0,1,519.12,131.052Z" transform="translate(-312.777 -94.769)" fill="#2d1a14"/>
            <path id="Path_29" data-name="Path 29" d="M438.633,118.182h0a4.393,4.393,0,0,1-4.345-4.414h0a4.394,4.394,0,0,1,4.417-4.345h0a4.394,4.394,0,0,1,4.345,4.417h0A4.393,4.393,0,0,1,438.633,118.182Z" transform="translate(-244.384 -90.762)" fill="#fa5b41"/>
            <path id="Path_30" data-name="Path 30" d="M450.81,114.4l-40.883-.339a2.441,2.441,0,0,1-2.412-2.454h0a2.441,2.441,0,0,1,2.454-2.412l40.881.339a2.441,2.441,0,0,1,2.415,2.454h0A2.444,2.444,0,0,1,450.81,114.4Z" transform="translate(-283.783 -91.098)" fill="#fa5b41"/>
          </g>
        </g>
        <g id="Group_10" data-name="Group 10">
          <path id="Path_31" data-name="Path 31" d="M343.469,100.057v79.29a30.835,30.835,0,0,0,61.669,0v-79.29Z" transform="translate(-343.469 -100.057)" fill="#fa5b41"/>
          <path id="Path_32" data-name="Path 32" d="M442.381,100.057V172.74a30.835,30.835,0,0,0,61.669,0V100.057Z" transform="translate(-197.908 -100.057)" fill="#fa5b41"/>
          <path id="Path_33" data-name="Path 33" d="M393.37,100.057v77.087a30.835,30.835,0,0,0,61.669,0V100.057Z" transform="translate(-270.034 -100.057)" fill="#fa5b41"/>
          <path id="Path_34" data-name="Path 34" d="M418.321,100.057v77.087a30.835,30.835,0,0,0,61.669,0V100.057Z" transform="translate(-233.315 -100.057)" fill="#f2ac30"/>
          <path id="Path_35" data-name="Path 35" d="M467.332,100.057v74.885a30.835,30.835,0,0,0,61.669,0V100.057Z" transform="translate(-161.19 -100.057)" fill="#f2ac30"/>
          <path id="Path_36" data-name="Path 36" d="M368.42,100.057v77.087a30.833,30.833,0,1,0,61.667,0V100.057Z" transform="translate(-306.751 -100.057)" fill="#f2ac30"/>
        </g>
      </g>
      <g id="Group_17" data-name="Group 17" transform="translate(1734.306 272.74)">
        <line id="Line_3" data-name="Line 3" y2="160.343" transform="translate(80.171)" fill="none" stroke="#ffe2b1" stroke-linecap="round" stroke-linejoin="round" stroke-width="2.883"/>
        <line id="Line_4" data-name="Line 4" x1="113.379" y2="113.38" transform="translate(23.482 23.482)" fill="none" stroke="#ffe2b1" stroke-linecap="round" stroke-linejoin="round" stroke-width="2.883"/>
        <line id="Line_5" data-name="Line 5" x1="160.343" transform="translate(0 80.171)" fill="none" stroke="#ffe2b1" stroke-linecap="round" stroke-linejoin="round" stroke-width="2.883"/>
        <line id="Line_6" data-name="Line 6" x1="113.379" y1="113.38" transform="translate(23.482 23.482)" fill="none" stroke="#ffe2b1" stroke-linecap="round" stroke-linejoin="round" stroke-width="2.883"/>
        <line id="Line_7" data-name="Line 7" x1="66.766" y1="145.781" transform="translate(46.788 7.281)" fill="none" stroke="#ffe2b1" stroke-linecap="round" stroke-linejoin="round" stroke-width="2.883"/>
        <line id="Line_8" data-name="Line 8" y1="146.687" x2="64.752" transform="translate(47.795 6.828)" fill="none" stroke="#ffe2b1" stroke-linecap="round" stroke-linejoin="round" stroke-width="2.883"/>
        <line id="Line_9" data-name="Line 9" y1="57.936" x2="149.51" transform="translate(5.416 51.203)" fill="none" stroke="#ffe2b1" stroke-linecap="round" stroke-linejoin="round" stroke-width="2.883"/>
        <line id="Line_10" data-name="Line 10" x2="146.687" y2="64.752" transform="translate(6.828 47.795)" fill="none" stroke="#ffe2b1" stroke-linecap="round" stroke-linejoin="round" stroke-width="2.883"/>
        <circle id="Ellipse_5" data-name="Ellipse 5" cx="34.211" cy="34.211" r="34.211" transform="translate(45.371 43.774)" fill="#ffc757"/>
      </g>
      <g id="Group_37" data-name="Group 37" transform="translate(1370.16 429.125)">
        <circle id="Ellipse_9" data-name="Ellipse 9" cx="17.684" cy="17.684" r="17.684" transform="translate(232.108)" fill="#4a1801"/>
        <g id="Group_24" data-name="Group 24" transform="translate(75.68 37.509)">
          <g id="Group_19" data-name="Group 19" transform="translate(96.359 344.576)">
            <path id="Path_68" data-name="Path 68" d="M506.8,311.013c1.053,7.229-2.536,14.98-8.505,18.372-4.048,2.3-8.762,2.642-13.161,3.972a33.485,33.485,0,0,0-20.107,17.867h58.09V310.454Z" transform="translate(-463.411 -305.236)" fill="#914b29"/>
            <path id="Path_69" data-name="Path 69" d="M485.132,327.645c4.4-1.33,9.113-1.671,13.161-3.972a17.478,17.478,0,0,0,7.539-9.338c1.157,1.792,2.271,3.614,3.51,5.341a17.409,17.409,0,0,0,4.209,4.419,7.255,7.255,0,0,0,5.551,1.169,10.817,10.817,0,0,0,4.014-1.814v22.062h-58.09A33.485,33.485,0,0,1,485.132,327.645Z" transform="translate(-463.411 -299.525)" fill="#914b29"/>
            <rect id="Rectangle_10" data-name="Rectangle 10" width="62.403" height="6.356" rx="1.234" transform="translate(62.403 49.337) rotate(180)" fill="#4a1801"/>
            <path id="Path_70" data-name="Path 70" d="M489.388,326.707h0a1.8,1.8,0,0,0,0-2.395l-8.824-9.59a1.481,1.481,0,0,0-2.207,0h0a1.809,1.809,0,0,0,0,2.4l8.826,9.587A1.475,1.475,0,0,0,489.388,326.707Z" transform="translate(-444.459 -299.682)" fill="#4a1801"/>
            <path id="Path_71" data-name="Path 71" d="M487.073,328.479h0a1.8,1.8,0,0,0,0-2.4l-8.824-9.587a1.481,1.481,0,0,0-2.207,0h0a1.809,1.809,0,0,0,0,2.4l8.826,9.587A1.475,1.475,0,0,0,487.073,328.479Z" transform="translate(-447.866 -297.074)" fill="#4a1801"/>
            <path id="Path_72" data-name="Path 72" d="M494.444,336.772s-14.214-4.738-8.527-28.429" transform="translate(-434.642 -308.343)" fill="none" stroke="#4a1801" stroke-linecap="round" stroke-linejoin="round" stroke-width="0.863"/>
          </g>
          <g id="Group_20" data-name="Group 20" transform="translate(184.172 344.096)">
            <path id="Path_73" data-name="Path 73" d="M517.31,310.821c-1.053,7.229,2.536,14.981,8.5,18.372,4.046,2.3,8.762,2.64,13.161,3.972a33.47,33.47,0,0,1,20.107,17.867h-58.09V310.26Z" transform="translate(-498.294 -305.042)" fill="#914b29"/>
            <path id="Path_74" data-name="Path 74" d="M538.976,327.452c-4.4-1.332-9.115-1.673-13.161-3.972a17.486,17.486,0,0,1-7.538-9.338c-1.157,1.789-2.271,3.611-3.51,5.339a17.464,17.464,0,0,1-4.209,4.422,7.263,7.263,0,0,1-5.551,1.167,10.791,10.791,0,0,1-4.014-1.812v22.062h58.09A33.47,33.47,0,0,0,538.976,327.452Z" transform="translate(-498.294 -299.33)" fill="#914b29"/>
            <rect id="Rectangle_11" data-name="Rectangle 11" width="62.403" height="6.356" rx="1.234" transform="translate(0 42.982)" fill="#4a1801"/>
            <path id="Path_75" data-name="Path 75" d="M507.242,326.515h0a1.8,1.8,0,0,1,0-2.4l8.824-9.587a1.478,1.478,0,0,1,2.207,0h0a1.806,1.806,0,0,1,0,2.4l-8.826,9.59A1.479,1.479,0,0,1,507.242,326.515Z" transform="translate(-489.768 -299.487)" fill="#4a1801"/>
            <path id="Path_76" data-name="Path 76" d="M509.554,328.287h0a1.809,1.809,0,0,1,0-2.4l8.826-9.587a1.478,1.478,0,0,1,2.207,0h0a1.806,1.806,0,0,1,0,2.4l-8.826,9.59A1.481,1.481,0,0,1,509.554,328.287Z" transform="translate(-486.361 -296.88)" fill="#4a1801"/>
            <path id="Path_77" data-name="Path 77" d="M500.953,336.578s14.212-4.738,8.527-28.429" transform="translate(-498.351 -308.149)" fill="none" stroke="#4a1801" stroke-linecap="round" stroke-linejoin="round" stroke-width="0.863"/>
          </g>
          <g id="Group_23" data-name="Group 23">
            <g id="Group_22" data-name="Group 22">
              <path id="Path_78" data-name="Path 78" d="M435.823,180.145l80.713,61.147,30.859-15.358" transform="translate(-410.026 -152.425)" fill="none" stroke="#f3725f" stroke-linecap="round" stroke-linejoin="round" stroke-width="9.896"/>
              <g id="Group_21" data-name="Group 21" transform="translate(196.683 66.432)">
                <path id="Path_79" data-name="Path 79" d="M530.5,272.811l-24.931-64.786a8.987,8.987,0,0,1,16.775-6.456L544.367,258.8l46.573-7.917,7.521,8.619-57.243,18.755A8.99,8.99,0,0,1,530.5,272.811Z" transform="translate(-504.962 -195.808)" fill="#f3725f"/>
              </g>
              <path id="Path_80" data-name="Path 80" d="M565.685,221.576a22.783,22.783,0,0,0,1.347-11.127,18.7,18.7,0,0,0-2.674-7.118,28.477,28.477,0,0,0-9.57-8.972,45.307,45.307,0,0,0-8.4-3.942c-.415-.151-.835-.294-1.253-.43q-3.314-1.083-6.725-1.836a75.425,75.425,0,0,0-31.009-.334,72.919,72.919,0,0,0-10.925,3.065,31.787,31.787,0,0,0-14.54,10.848,31.17,31.17,0,0,0-5.757,13.47,24.24,24.24,0,0,0-.213,6.713c.045.408.1.811.166,1.211a1.6,1.6,0,0,1,1.177.653,56.4,56.4,0,0,1,8.154,15.507c.1.277.183.556.274.835a1.293,1.293,0,0,1,.433.447c3.421,5.907-.527,10.63.331,17.16-2.6,9.7-3.418,15.8-3.354,19.924a11.658,11.658,0,0,0-.324,2.724v3.008a11.821,11.821,0,0,0,10.794,11.738c-.062.428-.1.685-.1.714.2,2.36.981.707,1.693-.685a11.782,11.782,0,0,0,1.4-.158l.084.007c16.221,1.5,33.493,5.974,49.559,3.287,3.122-.521,6.33-1.162,8.94-2.954,5.764-3.942,5.853-17.091,4.627-24.066-.077-.423-.158-.84-.247-1.251-1.572-7.234-4.795-14.3-4.3-21.684C555.92,238.838,562.591,230.41,565.685,221.576Z" transform="translate(-351.15 -143.268)" fill="#f2ac30"/>
              <path id="Path_81" data-name="Path 81" d="M478.423,207.65q-.5-1.131-1.06-2.242C477.711,206.154,478.067,206.9,478.423,207.65Z" transform="translate(-348.895 -115.248)" fill="#ffbf80"/>
              <path id="Path_82" data-name="Path 82" d="M544.142,227.1a48.949,48.949,0,0,1-3.349,11.958,53.539,53.539,0,0,1-13.386,18.829q-1.928,1.746-4.006,3.295-1.031.76-2.091,1.468c-.116.082-.232.156-.351.232a49.294,49.294,0,0,1-12.912,6.06c-7.19-20.843-7.917-41.286-.994-61.427q1.505-4.4,3.51-8.784c.989-2.163,2.153-4.392,4.167-5.65a6.936,6.936,0,0,1,3.566-1.013,10.028,10.028,0,0,1,5.5,1.6,13.649,13.649,0,0,1,1.7,1.278,28.754,28.754,0,0,1,4.713,5.752C535.3,208.284,540.4,218.771,544.142,227.1Z" transform="translate(-312.288 -134.884)" fill="#f2ac30"/>
              <path id="Path_83" data-name="Path 83" d="M510.167,246.741q-.7-20.424.43-40.853" transform="translate(-301.017 -114.542)" fill="none" stroke="#472a1c" stroke-miterlimit="10" stroke-width="0.124"/>
              <path id="Path_84" data-name="Path 84" d="M515.7,210.221q-2.632,14.652-5.27,29.306" transform="translate(-300.233 -108.165)" fill="none" stroke="#472a1c" stroke-miterlimit="10" stroke-width="0.124"/>
              <path id="Path_85" data-name="Path 85" d="M522.229,199.009a18.751,18.751,0,0,1-9.2-19.318H499.666c.173,5.218-2.944,8.925-5.816,13.282-1.5,2.271-3.285,4.632-5.9,5.381,3.779,5.059,10.319,7.59,16.631,7.751S518.2,203.871,522.229,199.009Z" transform="translate(-333.315 -153.094)" fill="#f3725f"/>
              <path id="Path_86" data-name="Path 86" d="M490.145,193.675c3.893-.685,7.833-1.953,10.8-4.592a17.694,17.694,0,0,0,5.183-9.392h-9.689c.173,5.218-2.944,8.925-5.816,13.282C490.464,193.208,490.308,193.441,490.145,193.675Z" transform="translate(-330.084 -153.094)" fill="#4a1801"/>
              <path id="Path_87" data-name="Path 87" d="M500.346,200.05h0a9.048,9.048,0,0,1-9.021-9.021V177.951a9.048,9.048,0,0,1,9.021-9.021h0a9.047,9.047,0,0,1,9.019,9.021v13.077A9.047,9.047,0,0,1,500.346,200.05Z" transform="translate(-328.348 -168.93)" fill="#f3725f"/>
              <path id="Path_88" data-name="Path 88" d="M504.88,178.588a3.474,3.474,0,1,1-3.475-3.473A3.477,3.477,0,0,1,504.88,178.588Z" transform="translate(-318.625 -159.828)" fill="#f3725f"/>
              <path id="Path_89" data-name="Path 89" d="M499.806,422.918c.962-15.045,9.439-172.057,8.559-187.109l-27.512,1.827c-.027,15.324.01,168.016.655,184.6Z" transform="translate(-343.767 -70.51)" fill="#4a1801"/>
              <path id="Path_90" data-name="Path 90" d="M525.769,425.568c.032-18.992-2.264-174.385-3.04-191.8l-24.8,2.6c-.264,16.926,6.725,178.547,6.972,188.869Z" transform="translate(-318.648 -73.513)" fill="#4a1801"/>
              <path id="Path_91" data-name="Path 91" d="M499.154,212.248c3.243-9.335,8.881-17.813,15.45-25.2-8.06-.059-15.616,3.569-23.023,6.74q-10.3,4.408-20.984,7.808c-.551,8.782.979,17.833,3.253,26.113,2.625,9.555,7.669,26.693,17.988,30.727a77.336,77.336,0,0,0,8.139-.109C505.141,241.038,493.946,227.234,499.154,212.248Z" transform="translate(-359.017 -142.262)" fill="#f2ac30"/>
              <path id="Path_92" data-name="Path 92" d="M480.834,229.643v26.884a26.02,26.02,0,0,0,25.942,25.945h14.98A26.022,26.022,0,0,0,547.7,256.527V229.643Z" transform="translate(-343.787 -79.584)" fill="#4a1801"/>
              <path id="Path_93" data-name="Path 93" d="M482.594,199.179l6.529,42.439L475.132,211.3" transform="translate(-352.178 -124.415)" fill="none" stroke="#472a1c" stroke-linecap="round" stroke-linejoin="round" stroke-width="0.495"/>
              <line id="Line_11" data-name="Line 11" x2="66.667" transform="translate(137.412 157.31)" fill="none" stroke="#c67b30" stroke-miterlimit="10" stroke-width="0.938"/>
              <path id="Path_94" data-name="Path 94" d="M551.286,238.617H483.6a4.526,4.526,0,0,1-4.513-4.513h0a4.525,4.525,0,0,1,4.513-4.511h67.685A4.525,4.525,0,0,1,555.8,234.1h0A4.526,4.526,0,0,1,551.286,238.617Z" transform="translate(-346.358 -79.657)" fill="#f2ac30"/>
              <path id="Path_95" data-name="Path 95" d="M492.865,177.946h6.429s.193,3.149-2.249,4.179S492.415,180.259,492.865,177.946Z" transform="translate(-326.168 -155.662)" fill="#fff"/>
              <path id="Path_96" data-name="Path 96" d="M545.968,227.939q3.481,1.943,6.965,3.883a11.329,11.329,0,0,0,4.622,1.745,3.059,3.059,0,0,0,2.781-1.09A1.629,1.629,0,0,0,559.48,230l3.4,6.367a2.9,2.9,0,0,0,1.219,1.414c1.893.838,4.76-5.917,5.655-7.2a2.138,2.138,0,0,0,.084-2.939q-2.951-5.038-5.9-10.072c-4.367.035-9.217-.279-13.581-.245a21,21,0,0,0-12.4,3.483C540.664,223.5,542.631,226.081,545.968,227.939Z" transform="translate(-259.734 -97.717)" fill="#f3725f"/>
              <path id="Path_97" data-name="Path 97" d="M449.8,189.1q-3.485,1.943-6.965,3.883a11.326,11.326,0,0,1-4.624,1.745,3.054,3.054,0,0,1-2.778-1.09,1.628,1.628,0,0,1,.855-2.477l-3.4,6.367a2.906,2.906,0,0,1-1.218,1.414c-1.9.838-4.76-5.917-5.655-7.2a2.135,2.135,0,0,1-.084-2.941q2.951-5.038,5.9-10.072c4.365.035,9.217-.279,13.582-.245a20.985,20.985,0,0,1,12.4,3.482C455.1,184.654,453.131,187.24,449.8,189.1Z" transform="translate(-425.386 -154.876)" fill="#f3725f"/>
            </g>
          </g>
          <path id="Path_98" data-name="Path 98" d="M494.679,199.368l2.1-12.655,15.084-2.444,1.629,11.006S509.7,200.2,494.679,199.368Z" transform="translate(-323.412 -146.357)" fill="#f2ac30"/>
          <path id="Path_99" data-name="Path 99" d="M505.9,199.531l2.59-12.919-19.77-2.178-1.631,11.006S490.878,200.364,505.9,199.531Z" transform="translate(-334.577 -146.114)" fill="#f2ac30"/>
          <path id="Path_100" data-name="Path 100" d="M495.527,185.258l3.261,12.637,12.289-7.078" transform="translate(-322.164 -144.901)" fill="none" stroke="#472a1c" stroke-linecap="round" stroke-linejoin="round" stroke-width="0.371"/>
          <path id="Path_101" data-name="Path 101" d="M503,185.093l-3.261,12.637-12.289-7.078" transform="translate(-334.057 -145.144)" fill="none" stroke="#472a1c" stroke-linecap="round" stroke-linejoin="round" stroke-width="0.371"/>
        </g>
        <g id="Group_32" data-name="Group 32" transform="translate(0 63.165)">
          <g id="Group_28" data-name="Group 28" transform="translate(0 39.12)">
            <g id="Group_27" data-name="Group 27">
              <path id="Path_102" data-name="Path 102" d="M526.134,245.249V350.874H406.293V244.609c.022-.012.035-.035.054-.047,8.838-8.107,14.548-18.2,11.53-32.544-.358-1.723-4.711-13.458-8.725-16.8H524.412c-4.271,1.809-9.414,15.606-9.807,17.487C511.589,227.046,517.3,237.142,526.134,245.249Z" transform="translate(-377.803 -195.016)" fill="#ff3e3e"/>
              <g id="Group_25" data-name="Group 25" transform="translate(59.425 0.049)">
                <path id="Path_103" data-name="Path 103" d="M469.89,195.158a23.7,23.7,0,1,1-46.256,0H419.3a27.953,27.953,0,1,0,54.932,0Z" transform="translate(-418.809 -195.158)" fill="#fff5e1"/>
              </g>
              <g id="Group_26" data-name="Group 26" transform="translate(69.41 0.049)">
                <path id="Path_104" data-name="Path 104" d="M455.151,195.158a15.236,15.236,0,1,1-28.668,0h-2.874a17.97,17.97,0,1,0,34.417,0Z" transform="translate(-422.849 -195.158)" fill="#fff5e1"/>
              </g>
              <path id="Path_105" data-name="Path 105" d="M491.917,211.184l-3.445,53.031c-8.972-5.771-19.546-11.488-27.549-18.844-8.836-8.107-14.546-18.2-11.53-32.541.393-1.881,5.539-15.677,9.807-17.487a1.913,1.913,0,0,1,1.723,0C460.973,195.37,491.917,211.184,491.917,211.184Z" transform="translate(-315.572 -195.138)" fill="#ff3e3e"/>
              <path id="Path_106" data-name="Path 106" d="M425.758,245.587c-.02.015-.035.035-.054.049-8,7.336-18.542,13.038-27.494,18.794L394.766,211.4s30.945-15.813,30.992-15.841a1.913,1.913,0,0,1,1.723,0,4.4,4.4,0,0,1,1.08.687c4.016,3.342,8.369,15.077,8.727,16.8C440.3,227.386,434.594,237.483,425.758,245.587Z" transform="translate(-394.766 -194.82)" fill="#ff3e3e"/>
            </g>
          </g>
          <line id="Line_12" data-name="Line 12" x2="3.975" y2="52.28" transform="translate(4.677 53.503)" fill="none" stroke="#fff5e1" stroke-linecap="round" stroke-linejoin="round" stroke-width="0.99"/>
          <line id="Line_13" data-name="Line 13" x2="4.28" y2="52.28" transform="translate(10.792 49.529)" fill="none" stroke="#fff5e1" stroke-linecap="round" stroke-linejoin="round" stroke-width="0.99"/>
          <line id="Line_14" data-name="Line 14" x1="4.28" y2="52.28" transform="translate(162.13 49.223)" fill="none" stroke="#fff5e1" stroke-linecap="round" stroke-linejoin="round" stroke-width="0.99"/>
          <line id="Line_15" data-name="Line 15" x1="4.28" y2="52.28" transform="translate(168.55 52.892)" fill="none" stroke="#fff5e1" stroke-linecap="round" stroke-linejoin="round" stroke-width="0.99"/>
          <g id="Group_31" data-name="Group 31" transform="translate(72.312)">
            <g id="Group_30" data-name="Group 30" clip-path="url(#clip-path)">
              <g id="Group_29" data-name="Group 29" transform="translate(-43.97 11.268)">
                <path id="Path_107" data-name="Path 107" d="M523.6,247.426l-51.968-36.513h.057l-4.051-3.438c0-2.212,0-3.52,0-4.293.6-.339,1.421-.843,2.608-1.594,3.342-2.118,4.726-6.023,3.614-10.188-.961-3.6-4.007-7.318-8.638-7.519a9.894,9.894,0,0,0-9.392,5.5,9.416,9.416,0,0,0,1.572,10.467,1.772,1.772,0,0,0,2.5.2,1.772,1.772,0,0,0,.2-2.494,5.905,5.905,0,0,1-1.085-6.619,6.4,6.4,0,0,1,6.055-3.52c2.842.124,4.746,2.546,5.373,4.894a5.51,5.51,0,0,1-2.088,6.285c-.235.148-2.771,1.666-3.161,1.876a1.768,1.768,0,0,0-1.1,1.673c0,.24,0,3.8,0,6.147a1.771,1.771,0,0,0,.625,1.352l1.5,1.268h.138l51.593,36.251-105.321.277L466.291,210.5a1.517,1.517,0,1,0-1.725-2.5l-57.678,39.716a1.517,1.517,0,0,0,.863,2.766h0l114.98-.3a1.518,1.518,0,0,0,.87-2.758Z" transform="translate(-406.233 -183.87)" fill="#472a1c"/>
              </g>
            </g>
          </g>
        </g>
        <g id="Group_36" data-name="Group 36" transform="translate(286.99 170.096)">
          <rect id="Rectangle_13" data-name="Rectangle 13" width="90.005" height="44.002" rx="8.901" transform="translate(42.668 13.905)" fill="#009bcf"/>
          <path id="Path_108" data-name="Path 108" d="M552.556,411.223h96.67l3.334-8.547,22.329-.452,21-89.005-30.322-59.3a28.191,28.191,0,0,0-26.384-18.253H565.256a33,33,0,0,0-30.88,21.365l-23.5,62.188,20.008,83.457h17.667Z" transform="translate(-510.88 -203.308)" fill="#ff3e3e"/>
          <path id="Path_109" data-name="Path 109" d="M651.461,259.991l-1.933-3.777C645.391,245.231,631.925,235,620.187,235l-67.339-.89c-11.179,0-25.035,9.489-31.068,18.512,20.715,27.939,45.557,52.5,67.549,79.416C610.007,307.99,630.534,283.818,651.461,259.991Z" transform="translate(-494.839 -205.603)" fill="#009bcf"/>
          <path id="Path_110" data-name="Path 110" d="M510.977,269.875l19.77,82.457h17.667l4,8.549h96.671l3.334-8.549,22.328-.452,19.349-82Z" transform="translate(-510.738 -152.964)" fill="#ead4c5"/>
          <path id="Path_111" data-name="Path 111" d="M567.931,269.875v84.178l.671-1.721,22.328-.452,19.349-82Z" transform="translate(-426.922 -152.964)" fill="#009bcf"/>
          <path id="Path_112" data-name="Path 112" d="M549.021,269.875H510.977l19.77,82.457h17.667l.607,1.3Z" transform="translate(-510.738 -152.964)" fill="#009bcf"/>
          <line id="Line_16" data-name="Line 16" x2="0.215" y2="180.413" transform="translate(87.123 28.503)" fill="none" stroke="#472a1c" stroke-linecap="round" stroke-linejoin="round" stroke-width="0.25"/>
          <path id="Path_113" data-name="Path 113" d="M520.59,265.165l10,50,1-55" transform="translate(-496.59 -167.255)" fill="none" stroke="#472a1c" stroke-linecap="round" stroke-linejoin="round" stroke-width="0.25"/>
          <path id="Path_114" data-name="Path 114" d="M578.931,267.593l-10,50-1-55" transform="translate(-426.924 -163.682)" fill="none" stroke="#472a1c" stroke-linecap="round" stroke-linejoin="round" stroke-width="0.25"/>
          <path id="Path_115" data-name="Path 115" d="M629.357,314.079H530.351a4.516,4.516,0,0,1-4.5-4.5h0a4.514,4.514,0,0,1,4.5-4.5h99.006a4.513,4.513,0,0,1,4.5,4.5h0A4.514,4.514,0,0,1,629.357,314.079Z" transform="translate(-488.85 -101.161)" fill="#ff3e3e"/>
          <path id="Path_116" data-name="Path 116" d="M543.97,295.3l-2.263,25.8L537.634,296.2" transform="translate(-471.509 -115.551)" fill="none" stroke="#472a1c" stroke-linecap="round" stroke-linejoin="round" stroke-width="0.25"/>
          <path id="Path_117" data-name="Path 117" d="M560.076,295.3l-2.263,25.8L553.739,296.2" transform="translate(-447.807 -115.551)" fill="none" stroke="#472a1c" stroke-linecap="round" stroke-linejoin="round" stroke-width="0.25"/>
          <g id="Group_33" data-name="Group 33" transform="translate(55.705 31.906)">
            <path id="Path_118" data-name="Path 118" d="M597.811,235.483v1.8a31.9,31.9,0,0,1-63.8,0v-1.8h-.593v1.8a32.494,32.494,0,0,0,64.989,0v-1.8Z" transform="translate(-533.418 -235.483)" fill="#472a1c"/>
          </g>
          <g id="Group_35" data-name="Group 35" transform="translate(76.832)">
            <g id="Group_34" data-name="Group 34" clip-path="url(#clip-path-2)">
              <path id="Path_119" data-name="Path 119" d="M616.451,270.437l-38.916-27.346h.042l-3.033-2.575V237.3c.447-.252,1.065-.63,1.953-1.194a6.655,6.655,0,0,0,2.707-7.63c-.719-2.694-3-5.482-6.468-5.63a7.409,7.409,0,0,0-7.034,4.123,7.054,7.054,0,0,0,1.179,7.84,1.328,1.328,0,0,0,1.868.148,1.332,1.332,0,0,0,.148-1.871,4.422,4.422,0,0,1-.813-4.956,4.8,4.8,0,0,1,4.535-2.637,4.647,4.647,0,0,1,4.024,3.668,4.13,4.13,0,0,1-1.565,4.706c-.175.111-2.074,1.248-2.365,1.4a1.54,1.54,0,0,0-.2.1,1.329,1.329,0,0,0-.62,1.152c0,.178,0,2.842,0,4.6a1.329,1.329,0,0,0,.467,1.013l1.119.949h.1l38.636,27.151-78.872.208,40.186-27.665a1.137,1.137,0,0,0-1.293-1.871l-43.194,29.746a1.137,1.137,0,0,0,.645,2.071h0l86.1-.227a1.137,1.137,0,0,0,.65-2.066Z" transform="translate(-561.697 -222.186)" fill="#472a1c"/>
            </g>
          </g>
          <path id="Path_121" data-name="Path 121" d="M540.909,232.359c.514,3.072,6.332,5.5,13.451,5.5s12.936-2.427,13.448-5.5Z" transform="translate(-466.689 -208.174)" fill="#472a1c"/>
          <line id="Line_17" data-name="Line 17" x2="16.224" y2="3.334" transform="translate(50.23 30.948)" fill="none" stroke="#472a1c" stroke-linecap="round" stroke-linejoin="round" stroke-width="0.25"/>
          <line id="Line_18" data-name="Line 18" x1="16.224" y2="3.334" transform="translate(110.903 30.726)" fill="none" stroke="#472a1c" stroke-linecap="round" stroke-linejoin="round" stroke-width="0.25"/>
          <path id="Path_122" data-name="Path 122" d="M543.566,243.274h0a2.118,2.118,0,0,1-2.113-2.111h0a2.118,2.118,0,0,1,2.113-2.111h0a2.118,2.118,0,0,1,2.111,2.111h0A2.118,2.118,0,0,1,543.566,243.274Z" transform="translate(-465.888 -198.325)" fill="#ead4c5"/>
          <path id="Path_123" data-name="Path 123" d="M551.479,243.364h0a2.118,2.118,0,0,1-2.113-2.111h0a2.118,2.118,0,0,1,2.113-2.111h0a2.118,2.118,0,0,1,2.111,2.111h0A2.118,2.118,0,0,1,551.479,243.364Z" transform="translate(-454.243 -198.192)" fill="#ead4c5"/>
        </g>
        <path id="Path_124" data-name="Path 124" d="M510.424,174.322c1.288,5.247-2.454,10.675-8.357,12.123s-11.735-1.629-13.023-6.876,2.454-10.677,8.359-12.126S509.136,169.074,510.424,174.322Z" transform="translate(-256.398 -134.136)" fill="#4a1801"/>
        <path id="Path_125" data-name="Path 125" d="M500.944,185.339a28.6,28.6,0,0,1-9.59-8.888,21.628,21.628,0,0,1-3.483-6.629,10.2,10.2,0,0,1,.467-7.338,11.087,11.087,0,0,1,6.876-5.178c3.146-.944,6.747-.924,9.511.855,3.062,1.975,4.548,5.776,4.656,9.419s-.959,7.207-2.014,10.695c4.886,2.091,8.149,4.923,10.124,9.857s1.085,11.147-2.884,14.679a39.275,39.275,0,0,0-9.847-12.38A10.212,10.212,0,0,1,500.944,185.339Z" transform="translate(-258.429 -149.442)" fill="#f2ac30"/>
        <path id="Path_126" data-name="Path 126" d="M492.389,160.551l3.24,11.2s-5.895,1.473-3.831,6.483" transform="translate(-252.617 -143.752)" fill="none" stroke="#472a1c" stroke-linecap="round" stroke-linejoin="round" stroke-width="0.371"/>
        <line id="Line_19" data-name="Line 19" x1="2.063" y2="10.316" transform="translate(243.013 17.684)" fill="none" stroke="#472a1c" stroke-linecap="round" stroke-linejoin="round" stroke-width="0.371"/>
        <path id="Path_127" data-name="Path 127" d="M491.9,170.941s7.368,0,9.432-3.831" transform="translate(-251.829 -134.1)" fill="none" stroke="#472a1c" stroke-linecap="round" stroke-linejoin="round" stroke-width="0.371"/>
        <path id="Path_128" data-name="Path 128" d="M502.66,177.377s-3.831-7.37-7.665-9.432" transform="translate(-247.267 -132.871)" fill="none" stroke="#472a1c" stroke-linecap="round" stroke-linejoin="round" stroke-width="0.371"/>
        <path id="Path_129" data-name="Path 129" d="M502.923,184.354c0,3.663-1.186,6.631-2.652,6.631s-2.652-2.968-2.652-6.631,1.186-6.631,2.652-6.631S502.923,180.691,502.923,184.354Z" transform="translate(-243.406 -118.482)" fill="none" stroke="#472a1c" stroke-linecap="round" stroke-linejoin="round" stroke-width="0.371"/>
      </g>
      <circle id="Ellipse_10" data-name="Ellipse 10" cx="2.161" cy="2.161" r="2.161" transform="translate(1670.964 529.532)" fill="#fff"/>
      <circle id="Ellipse_11" data-name="Ellipse 11" cx="2.161" cy="2.161" r="2.161" transform="translate(1671.553 543.286)" fill="#fff"/>
      <path id="Path_130" data-name="Path 130" d="M497.295,202.772c-.4,5,3.2,9.323,6.582,13.025" transform="translate(1126.231 347.506)" fill="none" stroke="#472a1c" stroke-linecap="round" stroke-linejoin="round" stroke-width="0.371"/>
      <path id="Path_131" data-name="Path 131" d="M486.005,201.659c-.4,5,3.2,9.323,6.582,13.025" transform="translate(1167.114 345.868)" fill="none" stroke="#472a1c" stroke-linecap="round" stroke-linejoin="round" stroke-width="0.371"/>
      <path id="Path_132" data-name="Path 132" d="M409.7,162.2l8.526,15.59,15.59,8.526-15.59,8.526-8.526,15.59-8.527-15.59-15.59-8.526,15.59-8.526Z" transform="translate(1019.371 287.806)" fill="#fff"/>
      <path id="Path_133" data-name="Path 133" d="M385.829,224.723l4.762,8.706,8.706,4.761-8.706,4.761-4.762,8.706-4.761-8.706-8.706-4.761,8.706-4.761Z" transform="translate(999.919 379.81)" fill="#fff"/>
      <path id="Path_134" data-name="Path 134" d="M380.963,151.421l4.421,8.083,8.083,4.421-8.083,4.421-4.421,8.083-4.421-8.083-8.083-4.421,8.083-4.421Z" transform="translate(994.175 271.938)" fill="#fff"/>
      <path id="Path_135" data-name="Path 135" d="M416.2,179.974l1.977,3.615,3.615,1.977-3.615,1.977-1.977,3.615-1.977-3.615-3.615-1.977,3.615-1.977Z" transform="translate(1056.199 313.956)" fill="#fff"/>
      <path id="Path_136" data-name="Path 136" d="M444.313,288.065l3.8,6.953,6.953,3.8-6.953,3.8-3.8,6.953-3.8-6.953-6.953-3.8,6.953-3.8Z" transform="translate(1089.975 473.024)" fill="#fff"/>
      <path id="Path_137" data-name="Path 137" d="M460.711,264.007l4.194,7.668,7.668,4.194-7.668,4.194-4.194,7.668-4.194-7.668-7.668-4.194,7.668-4.194Z" transform="translate(1112.479 437.621)" fill="#fff"/>
      <path id="Path_138" data-name="Path 138" d="M417.457,297.425l1.876,3.429,3.429,1.875-3.429,1.876-1.876,3.429-1.876-3.429-3.429-1.876,3.429-1.875Z" transform="translate(1058.475 486.799)" fill="#fff"/>
      <path id="Path_139" data-name="Path 139" d="M425.147,267.416l5.592,10.224,10.224,5.592-10.224,5.592-5.592,10.224-5.592-10.224-10.224-5.592,10.224-5.592Z" transform="translate(1054.323 442.637)" fill="#fff"/>
    </g>
    <path id="Path_166" data-name="Path 166" d="M1201.328,403.825a129.074,129.074,0,0,0-30.974-60.325,124.5,124.5,0,0,0-62.177-36.518c-23.547-5.527-47.891-6.422-71.522-11.506-22.685-4.881-45.194-14.33-59.534-33.408C968.5,250.6,963.448,236.647,959.1,223.118c-5.146-16-9.214-32.326-14.048-48.421-4.726-15.736-10.064-31.546-18.265-45.859-7.355-12.84-17.413-24.4-31.039-30.726a56.18,56.18,0,0,0-6.807-2.629V368.463a48.826,48.826,0,0,0,48.9,48.746h265.736Q1202.764,410.472,1201.328,403.825Z" transform="translate(-923.579 500.518)" fill="#f2f2f2"/>
    <path id="Path_167" data-name="Path 167" d="M711.338,272.225c-10.273,5.561-18.228,14.5-24.859,23.945-7.353,10.479-13.368,21.828-19.563,33.008-6.208,11.206-12.56,22.43-20.453,32.558-7.763,9.959-17.06,18.435-28.543,23.864-20.686,9.779-43.6,12.651-65.566,18.277-11.246,2.882-22.351,6.544-32.613,12.04a111.861,111.861,0,0,0-25.232,18.226c-12.025,11.718-20.195,26.8-21.942,43.61a82.159,82.159,0,0,0,1.545,25.442h225.4a38.092,38.092,0,0,0,38.154-38.029V266.412A51.215,51.215,0,0,0,711.338,272.225Z" transform="translate(1200.546 414.622)" fill="#f2f2f2"/>
  </g>
</svg>
