<svg id="Group_1443" data-name="Group 1443" xmlns="http://www.w3.org/2000/svg" width="557.989" height="477.013" viewBox="0 0 557.989 477.013">
  <g id="Group_1418" data-name="Group 1418" transform="translate(17.68)">
    <g id="Group_1416" data-name="Group 1416" transform="translate(401.797 38.744)">
      <path id="Path_1095" data-name="Path 1095" d="M475.531,314.28c-17.22-26.206-1.5-54.383-4.118-83.534s-30.324-35.516-25.082-60.224c6.077-28.649-10.109-56.155-28.453-56.155s-34.529,27.506-28.452,56.155c5.241,24.708-22.462,31.073-25.083,60.224s13.1,57.329-4.117,83.534-12.7,60.918-3,78.144a67.483,67.483,0,0,0,9.254,12.664c27.541,29.826,75.249,29.826,102.789,0a67.477,67.477,0,0,0,9.253-12.664C488.233,375.2,492.753,340.485,475.531,314.28Z" transform="translate(-348.622 -114.367)" fill="#e0e0e0"/>
      <path id="Rectangle_1264" data-name="Rectangle 1264" d="M6.22,0h4.968a6.22,6.22,0,0,1,6.22,6.22V155.264a0,0,0,0,1,0,0H0a0,0,0,0,1,0,0V6.22A6.22,6.22,0,0,1,6.22,0Z" transform="translate(60.553 219.806)" fill="#f0f0f0"/>
    </g>
    <g id="Group_1417" data-name="Group 1417" transform="translate(271.182 228.278)">
      <path id="Path_1096" data-name="Path 1096" d="M326.672,427.6h-23.7V281.054a11.884,11.884,0,0,1,11.85-11.85h0a11.883,11.883,0,0,1,11.85,11.85Z" transform="translate(-236.237 -242.067)" fill="#e0e0e0"/>
      <circle id="Ellipse_117" data-name="Ellipse 117" cx="73.001" cy="73.001" r="73.001" transform="translate(5.585)" fill="#f0f0f0"/>
      <circle id="Ellipse_118" data-name="Ellipse 118" cx="28.768" cy="28.768" r="28.768" transform="matrix(0.241, -0.971, 0.971, 0.241, 101.592, 65.154)" fill="#f0f0f0"/>
      <circle id="Ellipse_119" data-name="Ellipse 119" cx="17.033" cy="17.033" r="17.033" transform="translate(0 41.21) rotate(-80.747)" fill="#f0f0f0"/>
      <circle id="Ellipse_120" data-name="Ellipse 120" cx="11.955" cy="11.955" r="11.955" transform="translate(26.109 6.362)" fill="#f0f0f0"/>
    </g>
    <path id="Path_1097" data-name="Path 1097" d="M258.88,331.775a79.081,79.081,0,0,0-31.788,12.13c-.087-11.076-2.114-21.6-7.32-30.093-7.925,7.723-14.343,17.712-19.529,28.454-1.941-20.2-7.244-39.765-18.986-52.131-17.591,11.065-26.659,29.511-30.973,49.044-7.009-12.517-16.68-24.07-30.034-32.471-10.764,11.338-14.2,27.013-13.915,43.068-12.228-14.236-25.808-25.351-39.045-26.656-3.259,22.551,3.682,43.811,12.5,60.574a67.054,67.054,0,0,0,59.433,35.549h57.492c24.5,0,47.477-13.073,58.974-34.712C262.974,370.827,266.437,353.177,258.88,331.775Z" transform="translate(-59.502 -5.43)" fill="#e0e0e0"/>
    <path id="Path_1098" data-name="Path 1098" d="M244.477,122.306c7.1-20.811,1.465-35.626-15.9-35.626-10.891,0-24.4,5.831-37.547,15.326-1.485-5.413-5.67-8.656-12.4-8.656-11.848,0-28.177,10.024-40.99,24.164-3.1-3.153-7.584-5.084-13.35-5.395-11.338-.638-25.071,5.12-37.009,14.487a6.42,6.42,0,0,0-5.256-2.7c-6.534-.364-15.377,5.449-19.771,12.975-.273.474-.516.929-.76,1.385H247.927C248.483,131.708,247.323,126.223,244.477,122.306Z" transform="translate(-61.491 -86.68)" fill="#f0f0f0"/>
    <path id="Path_1099" data-name="Path 1099" d="M218.177,207.4c3.47-10.166.715-17.4-7.768-17.4-5.32,0-11.917,2.849-18.341,7.487-.725-2.643-2.769-4.229-6.058-4.229-5.786,0-13.764,4.9-20.022,11.8a9.571,9.571,0,0,0-6.521-2.635c-5.537-.312-12.246,2.5-18.078,7.077a3.128,3.128,0,0,0-2.566-1.317c-3.192-.179-7.512,2.66-9.657,6.336-.134.232-.253.455-.372.677h91.068C220.133,211.991,219.566,209.311,218.177,207.4Z" transform="translate(-34.614 -45.421)" fill="#f0f0f0"/>
    <path id="Path_1100" data-name="Path 1100" d="M413.474,158.965a14.948,14.948,0,0,0-2.161-.155c.67-10.154-3.211-16.637-11.5-16.637-5.981,0-13.322,3.385-20.8,9.113,2.141-19.71-4.714-32.52-20.237-32.52-12.521,0-28.375,8.332-44.033,21.922-1.371-7.731-5.985-12.366-13.737-12.366-13.618,0-32.969,14.32-48.483,34.523,0,0-.006.025-.02,0-3.351-4.5-8.389-7.291-15.009-7.733-12.968-.912-29.067,7.316-43.342,20.724a6.628,6.628,0,0,0-5.893-3.854c-7.091-.494-16.862,6.9-22.538,16.794H424.888C430.971,173.78,426.124,160.658,413.474,158.965Z" transform="translate(-19.87 -73.866)" fill="#f0f0f0"/>
  </g>
  <ellipse id="Ellipse_121" data-name="Ellipse 121" cx="271.319" cy="15.845" rx="271.319" ry="15.845" transform="translate(10.152 445.322)" fill="#f5f5f5"/>
  <g id="Group_1429" data-name="Group 1429" transform="translate(0 10.15)">
    <g id="Group_1424" data-name="Group 1424">
      <g id="Group_1419" data-name="Group 1419" transform="translate(0 79.242)">
        <path id="Path_1101" data-name="Path 1101" d="M48.856,150.562l319.011,45.92,42.812,43.2Z" transform="translate(-48.856 -150.562)" fill="#ebebeb"/>
      </g>
      <g id="Group_1420" data-name="Group 1420" transform="translate(0 79.242)">
        <path id="Path_1103" data-name="Path 1103" d="M48.856,150.562l319.011,45.92-14.8,62.474Z" transform="translate(-48.856 -150.562)" fill="#f79a39"/>
        <path id="Path_1104" data-name="Path 1104" d="M48.856,150.562l319.011,45.92-14.8,62.474Z" transform="translate(-48.856 -150.562)" fill="#f79a39" opacity="0.2"/>
      </g>
      <g id="Group_1422" data-name="Group 1422" transform="translate(115.136)">
        <g id="Group_1421" data-name="Group 1421">
          <path id="Path_1105" data-name="Path 1105" d="M313.654,100.85l18.523,86.8a8.765,8.765,0,0,1-6.723,10.371L160.221,233.28a8.764,8.764,0,0,1-10.371-6.724l-18.523-86.8a8.749,8.749,0,0,1,6.722-10.371L303.283,94.126a8.752,8.752,0,0,1,10.371,6.724Z" transform="translate(-131.135 -93.934)" fill="#ffb71c"/>
          <path id="Path_1106" data-name="Path 1106" d="M313.654,100.85l18.523,86.8a8.765,8.765,0,0,1-6.723,10.371L160.221,233.28a8.764,8.764,0,0,1-10.371-6.724l-18.523-86.8a8.749,8.749,0,0,1,6.722-10.371L303.283,94.126a8.752,8.752,0,0,1,10.371,6.724Z" transform="translate(-131.135 -93.934)" fill="#ffb71c" opacity="0.4"/>
        </g>
        <path id="Path_1107" data-name="Path 1107" d="M309.139,95.178l-55.214,67.773a35.577,35.577,0,0,1-43.587,9.3l-78.071-39.33a8.747,8.747,0,0,1,5.33-3.535L302.831,94.126A8.736,8.736,0,0,1,309.139,95.178Z" transform="translate(-130.682 -93.934)" fill="#71b900"/>
      </g>
      <g id="Group_1423" data-name="Group 1423" transform="translate(0 79.242)">
        <path id="Path_1108" data-name="Path 1108" d="M48.856,150.562,311.98,213.093l41.084,45.863Z" transform="translate(-48.856 -150.562)" fill="#ebebeb"/>
        <path id="Path_1109" data-name="Path 1109" d="M48.856,150.562,311.98,213.093l41.084,45.863Z" transform="translate(-48.856 -150.562)" fill="#ebebeb" opacity="0.6"/>
      </g>
      <rect id="Rectangle_1265" data-name="Rectangle 1265" width="1.4" height="33.93" transform="matrix(0.505, -0.863, 0.863, 0.505, 95.273, 140.732)" fill="#71b900"/>
      <rect id="Rectangle_1266" data-name="Rectangle 1266" width="1.4" height="12.206" transform="translate(137.484 165.459) rotate(-59.637)" fill="#71b900"/>
      <path id="Path_1110" data-name="Path 1110" d="M48.856,150.562,311.98,213.093l-51.145,61.649Z" transform="translate(-48.856 -71.319)" fill="#ffb71c"/>
    </g>
    <g id="Group_1428" data-name="Group 1428" transform="translate(256.692 186.458)">
      <g id="Group_1425" data-name="Group 1425" transform="translate(49.583 16.724)">
        <path id="Path_1111" data-name="Path 1111" d="M313.391,261.7a2.786,2.786,0,0,1-1.029-.2l-42.868-16.971a2.8,2.8,0,0,1,2.061-5.2L314.424,256.3a2.8,2.8,0,0,1-1.033,5.4Z" transform="translate(-267.726 -239.131)" fill="#71b900"/>
        <path id="Path_1112" data-name="Path 1112" d="M313.391,261.7a2.786,2.786,0,0,1-1.029-.2l-42.868-16.971a2.8,2.8,0,0,1,2.061-5.2L314.424,256.3a2.8,2.8,0,0,1-1.033,5.4Z" transform="translate(-267.726 -239.131)" fill="#71b900" opacity="0.3"/>
      </g>
      <g id="Group_1426" data-name="Group 1426" transform="translate(66.903)">
        <path id="Path_1113" data-name="Path 1113" d="M305.924,241.894a2.786,2.786,0,0,1-1.03-.2l-23.022-9.114a2.8,2.8,0,1,1,2.061-5.2l23.022,9.114a2.8,2.8,0,0,1-1.031,5.4Z" transform="translate(-280.103 -227.18)" fill="#71b900"/>
        <path id="Path_1114" data-name="Path 1114" d="M305.924,241.894a2.786,2.786,0,0,1-1.03-.2l-23.022-9.114a2.8,2.8,0,1,1,2.061-5.2l23.022,9.114a2.8,2.8,0,0,1-1.031,5.4Z" transform="translate(-280.103 -227.18)" fill="#71b900" opacity="0.5"/>
      </g>
      <g id="Group_1427" data-name="Group 1427" transform="translate(0 16.725)">
        <path id="Path_1115" data-name="Path 1115" d="M276.888,261.28a2.786,2.786,0,0,1-1.029-.2l-41.8-16.547a2.8,2.8,0,0,1,2.061-5.2l41.8,16.549a2.8,2.8,0,0,1-1.031,5.4Z" transform="translate(-232.293 -239.132)" fill="#71b900"/>
        <path id="Path_1116" data-name="Path 1116" d="M276.888,261.28a2.786,2.786,0,0,1-1.029-.2l-41.8-16.547a2.8,2.8,0,0,1,2.061-5.2l41.8,16.549a2.8,2.8,0,0,1-1.031,5.4Z" transform="translate(-232.293 -239.132)" fill="#71b900" opacity="0.3"/>
      </g>
    </g>
  </g>
  <g id="Group_1442" data-name="Group 1442" transform="translate(296.397 31.789)">
    <path id="Path_1117" data-name="Path 1117" d="M376.278,164.821c3.705,7.239,7.109,14.482,10.337,21.905,3.206,7.422,6.251,14.924,8.87,22.8l.957,2.985c.161.53.41,1.4.539,2.021.132.648.273,1.314.348,1.906a49.989,49.989,0,0,1,.476,6.806,119.294,119.294,0,0,1-.581,12.524,201.149,201.149,0,0,1-3.81,24.1l-7.673-.851c-.1-7.883-.174-15.842-.446-23.607-.139-3.875-.36-7.74-.753-11.387a45.741,45.741,0,0,0-.831-5.071c-.08-.395-.185-.694-.274-1.019-.111-.347-.158-.428-.311-.844l-1.055-2.646c-2.923-7.081-6.215-14.224-9.57-21.332l-10.158-21.316Z" transform="translate(-220.062 -87.263)" fill="#e4897b"/>
    <path id="Path_1118" data-name="Path 1118" d="M380.165,230.42l-3.582,6.7,11.443,3.193s2.179-5.392-.417-9.64Z" transform="translate(-214.375 -61.066)" fill="#e4897b"/>
    <path id="Path_1119" data-name="Path 1119" d="M373.448,244.868l10.52.831,5.309-7.3-11.442-3.192Z" transform="translate(-215.627 -59.154)" fill="#e4897b"/>
    <path id="Path_1120" data-name="Path 1120" d="M338.435,130.744c-.165.812-.729,1.383-1.261,1.275s-.827-.854-.662-1.667.729-1.384,1.261-1.275S338.6,129.931,338.435,130.744Z" transform="translate(-230.396 -101.543)" fill="#263238"/>
    <path id="Path_1121" data-name="Path 1121" d="M338.916,131.264s-2.8,4.313-5.294,6.161c1.164,1.633,3.733,1.517,3.733,1.517Z" transform="translate(-231.532 -100.664)" fill="#de5753"/>
    <path id="Path_1122" data-name="Path 1122" d="M341.849,128.175a.485.485,0,0,1-.358-.157,3.859,3.859,0,0,0-3.265-1.311.487.487,0,0,1-.161-.961,4.834,4.834,0,0,1,4.142,1.612.487.487,0,0,1-.358.817Z" transform="translate(-229.919 -102.881)" fill="#263238"/>
    <path id="Path_1123" data-name="Path 1123" d="M361.021,138.432c-1.474,7.52-2.946,21.3,2.316,26.319,0,0-2.056,7.628-16.03,7.628-15.366,0-7.344-7.628-7.344-7.628,8.386-2,8.171-8.224,6.71-14.068Z" transform="translate(-229.835 -97.802)" fill="#e4897b"/>
    <path id="Path_1124" data-name="Path 1124" d="M365.4,163.761c1.11-3.686,2.331-7.9-.2-9.225-2.781-1.454-18-2.936-23.246-.207s-3.76,10.2-3.76,10.2Z" transform="translate(-229.784 -92.062)" fill="#263238"/>
    <path id="Path_1125" data-name="Path 1125" d="M381.4,410.719a3.306,3.306,0,0,1-2.469-.68.99.99,0,0,1,.008-1.156,1.129,1.129,0,0,1,.764-.567c1.51-.347,4.339,1.591,4.46,1.674a.244.244,0,0,1-.081.438A13.029,13.029,0,0,1,381.4,410.719Zm-1.285-1.961a1.259,1.259,0,0,0-.3.032.656.656,0,0,0-.451.327c-.22.4-.09.57-.048.625.441.576,2.543.586,4.075.327A8,8,0,0,0,380.113,408.758Z" transform="translate(-213.509 9.96)" fill="#407bff"/>
    <path id="Path_1126" data-name="Path 1126" d="M383.385,411.145a.267.267,0,0,1-.116-.028c-1.062-.576-3.121-2.828-2.9-3.976a.8.8,0,0,1,.775-.64,1.356,1.356,0,0,1,1.037.313c1.2.975,1.44,3.942,1.451,4.068a.241.241,0,0,1-.111.222A.225.225,0,0,1,383.385,411.145Zm-2.075-4.166a.723.723,0,0,0-.109.007c-.318.038-.344.185-.357.246-.127.679,1.182,2.38,2.24,3.181-.12-.866-.449-2.594-1.216-3.221A.859.859,0,0,0,381.31,406.979Z" transform="translate(-212.871 9.248)" fill="#407bff"/>
    <path id="Path_1127" data-name="Path 1127" d="M337.434,410.729c-1.318,0-2.59-.182-3.018-.775a.925.925,0,0,1,.02-1.065,1.212,1.212,0,0,1,.772-.57c1.7-.455,5.3,1.583,5.456,1.669a.243.243,0,0,1,.119.25.248.248,0,0,1-.193.2A18.1,18.1,0,0,1,337.434,410.729Zm-1.629-2a1.768,1.768,0,0,0-.47.056.738.738,0,0,0-.477.34c-.174.3-.111.452-.048.539.463.642,3.06.676,4.989.41A11,11,0,0,0,335.805,408.733Z" transform="translate(-231.277 9.952)" fill="#407bff"/>
    <path id="Path_1128" data-name="Path 1128" d="M339.782,411.145a.242.242,0,0,1-.1-.02c-1.24-.557-3.7-2.779-3.511-3.943.045-.273.238-.611.907-.68a1.79,1.79,0,0,1,1.35.417c1.308,1.075,1.584,3.843,1.6,3.96a.246.246,0,0,1-.1.221A.243.243,0,0,1,339.782,411.145Zm-2.508-4.166c-.048,0-.1,0-.147.007-.438.045-.466.217-.474.274-.112.7,1.557,2.445,2.822,3.2a5.716,5.716,0,0,0-1.357-3.171A1.291,1.291,0,0,0,337.275,406.979Z" transform="translate(-230.518 9.249)" fill="#407bff"/>
    <path id="Path_1129" data-name="Path 1129" d="M350.053,416.438h-10.28l-1.024-23.807h10.28Z" transform="translate(-229.484 3.713)" fill="#e4897b"/>
    <path id="Path_1130" data-name="Path 1130" d="M395.344,416.438h-10.28L379.9,392.631h10.28Z" transform="translate(-213.052 3.713)" fill="#e4897b"/>
    <path id="Path_1131" data-name="Path 1131" d="M387.64,408.793h11.549a.9.9,0,0,1,.876.7l2.03,9.138a1.511,1.511,0,0,1-1.5,1.828c-4.033-.069-5.992-.305-11.07-.305-3.125,0-9.563.325-13.877.325-4.22,0-4.878-4.267-3.112-4.653,7.92-1.732,10.905-4.123,13.441-6.4A2.49,2.49,0,0,1,387.64,408.793Z" transform="translate(-216.359 10.167)" fill="#263238"/>
    <path id="Path_1132" data-name="Path 1132" d="M346.615,408.793h11.227a.9.9,0,0,1,.875.7l2.032,9.138a1.5,1.5,0,0,1-1.479,1.829c-4.05-.069-9.9-.306-14.993-.306-5.951,0-11.091.325-18.071.325-4.22,0-5.392-4.267-3.624-4.653,8.042-1.759,14.608-1.948,21.558-6.233A4.751,4.751,0,0,1,346.615,408.793Z" transform="translate(-236.258 10.167)" fill="#263238"/>
    <path id="Path_1133" data-name="Path 1133" d="M361.969,184.523a238.861,238.861,0,0,1-25.619-3.406c-4.241-.816-8.491-1.725-12.738-2.869a100.067,100.067,0,0,1-12.822-4.232c-1.076-.442-2.163-.939-3.251-1.455a30.916,30.916,0,0,1-3.49-2.036c-2.022-1.335-3.752-2.711-5.474-4.085-3.423-2.74-6.608-5.59-9.751-8.469-6.258-5.788-12.2-11.78-17.913-18.082l5.148-5.751,20.3,14.592c3.351,2.417,6.734,4.776,10.061,7,1.658,1.1,3.353,2.147,4.895,3.017a16.654,16.654,0,0,0,2.015.987c.833.326,1.674.648,2.559.945a149.977,149.977,0,0,0,23.126,5.179c7.99,1.265,16.248,2.3,24.223,3.133Z" transform="translate(-256.576 -99.516)" fill="#e4897b"/>
    <g id="Group_1430" data-name="Group 1430" transform="translate(138.453 68.959)">
      <path id="Path_1134" data-name="Path 1134" d="M373.063,158.991c9.635,2.208,19.377,30.38,19.377,30.38L372.605,203.6s-5.54-13.12-10.99-24.6C355.9,166.978,363.212,156.732,373.063,158.991Z" transform="translate(-359.608 -158.676)" fill="#ffb71c"/>
      <path id="Path_1135" data-name="Path 1135" d="M373.063,158.991c9.635,2.208,19.377,30.38,19.377,30.38L372.605,203.6s-5.54-13.12-10.99-24.6C355.9,166.978,363.212,156.732,373.063,158.991Z" transform="translate(-359.608 -158.676)" fill="#ffb71c" opacity="0.4"/>
    </g>
    <g id="Group_1431" data-name="Group 1431" transform="translate(142.417 84.665)">
      <path id="Path_1136" data-name="Path 1136" d="M366.372,169.9l-3.932,8.8c4.072,8.788,7.794,17.492,8.788,19.815C371.088,188.12,369.115,175.218,366.372,169.9Z" transform="translate(-362.44 -169.9)" fill="#407bff"/>
      <path id="Path_1137" data-name="Path 1137" d="M366.372,169.9l-3.932,8.8c4.072,8.788,7.794,17.492,8.788,19.815C371.088,188.12,369.115,175.218,366.372,169.9Z" transform="translate(-362.44 -169.9)" opacity="0.6"/>
    </g>
    <g id="Group_1432" data-name="Group 1432" transform="translate(89.267 66.606)">
      <path id="Path_1138" data-name="Path 1138" d="M329.507,160.191s-10.942,12.359-.609,88.856h54.986c.378-8.441-4.926-49.615,3.216-89.385a143.3,143.3,0,0,0-18.407-2.324c-7.025-.339-17.2-.563-23.373,0A103.184,103.184,0,0,0,329.507,160.191Z" transform="translate(-324.458 -156.995)" fill="#ffb71c"/>
      <path id="Path_1139" data-name="Path 1139" d="M329.507,160.191s-10.942,12.359-.609,88.856h54.986c.378-8.441-4.926-49.615,3.216-89.385a143.3,143.3,0,0,0-18.407-2.324c-7.025-.339-17.2-.563-23.373,0A103.184,103.184,0,0,0,329.507,160.191Z" transform="translate(-324.458 -156.995)" fill="#ffb71c" opacity="0.4"/>
    </g>
    <g id="Group_1433" data-name="Group 1433" transform="translate(89.423 84.665)">
      <path id="Path_1140" data-name="Path 1140" d="M325.4,169.9c-.364,2.9-.644,6.325-.826,10.369a57.481,57.481,0,0,0,15.309-7.193Z" transform="translate(-324.57 -169.9)" fill="#407bff"/>
      <path id="Path_1141" data-name="Path 1141" d="M325.4,169.9c-.364,2.9-.644,6.325-.826,10.369a57.481,57.481,0,0,0,15.309-7.193Z" transform="translate(-324.57 -169.9)" opacity="0.6"/>
    </g>
    <g id="Group_1434" data-name="Group 1434" transform="translate(77.385 64.864)">
      <path id="Path_1142" data-name="Path 1142" d="M352.352,177.051c-7.356,6.518-35.458,5.866-35.458,5.866l-.926-27.167s15.932,2.334,28.643,2.077C360.314,157.509,360.424,169.9,352.352,177.051Z" transform="translate(-315.967 -155.75)" fill="#ffb71c"/>
      <path id="Path_1143" data-name="Path 1143" d="M352.352,177.051c-7.356,6.518-35.458,5.866-35.458,5.866l-.926-27.167s15.932,2.334,28.643,2.077C360.314,157.509,360.424,169.9,352.352,177.051Z" transform="translate(-315.967 -155.75)" fill="#ffb71c" opacity="0.4"/>
    </g>
    <path id="Path_1144" data-name="Path 1144" d="M278.933,136.589l-7.057-8.238-7.533,8.344s4.639,7.8,12.023,6.57Z" transform="translate(-259.199 -101.828)" fill="#e4897b"/>
    <path id="Path_1145" data-name="Path 1145" d="M263.382,121.485l-2.715,10.75,5.145,7.2,7.533-8.343Z" transform="translate(-260.667 -104.57)" fill="#e4897b"/>
    <g id="Group_1435" data-name="Group 1435" transform="translate(109.267 396.351)">
      <path id="Path_1146" data-name="Path 1146" d="M338.751,392.636l.526,12.271h10.284l-.526-12.271Z" transform="translate(-338.751 -392.636)" fill="#ce6f64"/>
      <path id="Path_1147" data-name="Path 1147" d="M390.181,392.636H379.9l2.669,12.271h10.284Z" transform="translate(-322.319 -392.636)" fill="#ce6f64"/>
    </g>
    <path id="Path_1148" data-name="Path 1148" d="M345.048,128.379c-9.222-4.261-12.137-22.861,14.392-18.255,0,0-4,4.43,4.124,7.229S364.886,137.548,345.048,128.379Z" transform="translate(-229.592 -109.397)" fill="#263238"/>
    <path id="Path_1149" data-name="Path 1149" d="M366.246,138.016c-2.641,9.856-3.686,15.757-9.768,19.855-9.148,6.163-20.537-.911-20.894-11.356-.32-9.4,4.053-23.939,14.629-25.924A13.915,13.915,0,0,1,366.246,138.016Z" transform="translate(-230.755 -105.029)" fill="#e4897b"/>
    <path id="Path_1150" data-name="Path 1150" d="M356.647,113.935c6.279,3.511,14.788,5.606,13.933,10.583-1.045,6.084,5.145,2.278,3.7,11.343-.942,5.918-11.859,23.856-19.546,22.98-11.553-1.317-10.088-18.964-10.127-28.238C344.588,125.137,344.332,107.049,356.647,113.935Z" transform="translate(-227.16 -108.2)" fill="#263238"/>
    <path id="Path_1151" data-name="Path 1151" d="M344.452,119.111c-2.8.66-6.507,16.792,4.334,18.27C361.262,139.081,344.452,119.111,344.452,119.111Z" transform="translate(-228.385 -105.518)" fill="#263238"/>
    <path id="Path_1152" data-name="Path 1152" d="M346.757,126.066c-3.43.3-11.165-3.826-10.242-10.033C336.515,116.033,341.445,123.3,346.757,126.066Z" transform="translate(-230.407 -106.747)" fill="#263238"/>
    <path id="Path_1153" data-name="Path 1153" d="M350.063,134.6a11.538,11.538,0,0,1-5.071,5.4c-2.957,1.539-4.619-.712-3.95-3.671.6-2.663,2.867-6.673,5.909-7C349.948,129,351.29,131.8,350.063,134.6Z" transform="translate(-228.628 -101.449)" fill="#e4897b"/>
    <path id="Path_1154" data-name="Path 1154" d="M358.446,127.874a13.759,13.759,0,0,0,8.1-10.25S371.161,130.52,358.446,127.874Z" transform="translate(-221.618 -106.111)" fill="#263238"/>
    <path id="Path_1155" data-name="Path 1155" d="M368.7,125.7a7.089,7.089,0,0,0-6.7-.66S366.316,119.446,368.7,125.7Z" transform="translate(-220.196 -104.07)" fill="#263238"/>
    <g id="Group_1436" data-name="Group 1436" transform="translate(113.212 158.659)">
      <path id="Path_1156" data-name="Path 1156" d="M341.57,222.777s11.666,78.562,18.071,107.995c7.014,32.23,33.438,139.592,33.438,139.592h18.828s-17.423-104.76-21.425-136.67c-4.344-34.635-13.431-110.917-13.431-110.917Z" transform="translate(-341.57 -222.777)" fill="#9a9a9a"/>
      <path id="Path_1157" data-name="Path 1157" d="M341.57,222.777s11.666,78.562,18.071,107.995c7.014,32.23,33.438,139.592,33.438,139.592h18.828s-17.423-104.76-21.425-136.67c-4.344-34.635-13.431-110.917-13.431-110.917Z" transform="translate(-341.57 -222.777)" fill="#9a9a9a" opacity="0.5"/>
    </g>
    <g id="Group_1437" data-name="Group 1437" transform="translate(161.711 399.309)">
      <path id="Path_1158" data-name="Path 1158" d="M376.231,394.75c-.08,0,1.945,7.23,1.945,7.23h21.183l-.389-6.452Z" transform="translate(-376.228 -394.75)" fill="#263238"/>
      <path id="Path_1159" data-name="Path 1159" d="M376.231,394.75c-.08,0,1.945,7.23,1.945,7.23h21.183l-.389-6.452Z" transform="translate(-376.228 -394.75)" fill="#263238" opacity="0.1"/>
    </g>
    <g id="Group_1438" data-name="Group 1438" transform="translate(117.549 186.545)">
      <path id="Path_1160" data-name="Path 1160" d="M347.706,242.81c13.49,2.645,12.062,52.951,10.439,78.825-3.89-18.289-9.586-53.483-13.476-78.462A4.609,4.609,0,0,1,347.706,242.81Z" transform="translate(-344.669 -242.705)" fill="#7b7b7b"/>
    </g>
    <g id="Group_1439" data-name="Group 1439" transform="translate(92.98 158.659)">
      <path id="Path_1162" data-name="Path 1162" d="M327.838,222.777s-1.415,76.861-.3,108.21c1.163,32.609,12.552,139.377,12.552,139.377h17.415s.639-104.863,1.413-136.887c.845-34.912,5.06-110.7,5.06-110.7Z" transform="translate(-327.112 -222.777)" fill="#9a9a9a"/>
      <path id="Path_1163" data-name="Path 1163" d="M327.838,222.777s-1.415,76.861-.3,108.21c1.163,32.609,12.552,139.377,12.552,139.377h17.415s.639-104.863,1.413-136.887c.845-34.912,5.06-110.7,5.06-110.7Z" transform="translate(-327.112 -222.777)" fill="#9a9a9a" opacity="0.5"/>
    </g>
    <g id="Group_1440" data-name="Group 1440" transform="translate(97.766 164.396)">
      <path id="Path_1164" data-name="Path 1164" d="M342.355,456.218a.176.176,0,0,1-.174-.158c-3.069-29.55-10.308-101.051-11.223-126.7-.933-26.183-.087-84.927.2-102.307a.176.176,0,0,1,.175-.174h0a.174.174,0,0,1,.172.178c-.283,17.379-1.129,76.115-.2,102.29.915,25.642,8.151,97.133,11.22,126.68a.173.173,0,0,1-.155.192Z" transform="translate(-330.532 -226.877)" fill="#407bff"/>
      <path id="Path_1165" data-name="Path 1165" d="M342.355,456.218a.176.176,0,0,1-.174-.158c-3.069-29.55-10.308-101.051-11.223-126.7-.933-26.183-.087-84.927.2-102.307a.176.176,0,0,1,.175-.174h0a.174.174,0,0,1,.172.178c-.283,17.379-1.129,76.115-.2,102.29.915,25.642,8.151,97.133,11.22,126.68a.173.173,0,0,1-.155.192Z" transform="translate(-330.532 -226.877)" fill="#fff" opacity="0.4"/>
    </g>
    <g id="Group_1441" data-name="Group 1441" transform="translate(102.606 399.309)">
      <path id="Path_1166" data-name="Path 1166" d="M334,394.75c-.08,0,.982,7.23.982,7.23h21.185l.572-6.452Z" transform="translate(-333.991 -394.75)" fill="#263238"/>
      <path id="Path_1167" data-name="Path 1167" d="M334,394.75c-.08,0,.982,7.23.982,7.23h21.185l.572-6.452Z" transform="translate(-333.991 -394.75)" fill="#263238" opacity="0.1"/>
    </g>
  </g>
</svg>
